<mxfile host="Electron" agent="Mozilla/5.0 (Windows NT 10.0; Win64; x64) AppleWebKit/537.36 (KHTML, like Gecko) draw.io/27.0.9 Chrome/134.0.6998.205 Electron/35.4.0 Safari/537.36" version="27.0.9">
  <diagram name="Page-1" id="g93MvbZg7vEW78i2AOjb">
    <mxGraphModel dx="1489" dy="897" grid="1" gridSize="10" guides="1" tooltips="1" connect="1" arrows="1" fold="1" page="1" pageScale="1" pageWidth="1100" pageHeight="850" math="0" shadow="0">
      <root>
        <mxCell id="0" />
        <mxCell id="1" parent="0" />
        <mxCell id="n0PsI0VugUc_FvK4NNub-2" value="" style="shape=image;verticalLabelPosition=bottom;labelBackgroundColor=default;verticalAlign=top;aspect=fixed;imageAspect=0;image=data:image/png,iVBORw0KGgoAAAANSUhEUgAAA0EAAAH+CAYAAABa/gVQAAAAAXNSR0IArs4c6QAAAARnQU1BAACxjwv8YQUAAAAJcEhZcwAAFxEAABcRAcom8z8AANTmSURBVHhe7N0HVBR52v79ed7d59n9b57d2cmOY86KOSvmnHPOOUfUMeecc86KGXPAjJgFzCggQVFAVHLmes9dgGLRTXCg6eq6Puf8zuxSDUJXd1V9K/VXX331ldVXX311+KuvvrrIwcHBwcHBwcHBwcFhwePUV199Zf1V4v8ABwcHBwcHBwcHBweHDsYTiSApIixZsgQXL17k4ODg4ODg4ODg4OCwuLFnz56kCHrxMYJkAhERERERkSV68eIFI4iIiIiIiPSDEURERERERLrCCCIiIiIiIl1hBBERERERka4wgoiIiIiISFcYQUREREREpCuMICIiIiIi0hVGEBERERER6QojiFTiEPP4AOb/NhR9u3dCh3Zt0bZt4mjXAZ17DMLYudtw/uk7xKq/1cTiQrxx/9JhHLz6EtHx6qlERERERIYxgkglFhF2vZDnz1/h76XboteIMRgzJnGMHY3hfVqgcpF8KFp3HLbffqP+ZhOKgf+9DRhcoyIazr6N8Dj1dCIiIiIiwxhBpBKLiJNDUOqH/6LWkkd4r54c74tbS9uh0N/+hdIDd+JxuPoBphNwZw7qfZsLdZe/UE8iIiIiIjKKEUQqSRH0DarNvAb3CPV0AC/3Y1y1v+BvlUdhp0fyCRF4fccOmxdOxXib8ZiyYBPsbnrj806KxMubdti8aBrG29hgwrSF2Gh3Gy/DVOezRb3Go7PbsHT6eIy1mYjZqw/CwT0ocWI43jw6hOltKyPX3/+FnNW6YdzsPbj9IRY8K46IiIiI0sIIIpV0RJDPPthU+TP+UmkEtrsnfi3SDw/2T0aXmmVQtmZTtG7bBs3q10S12l0wdf8jfJDHxIfB+9x89G/RCM3bdkDnzp3RpXMr1K5QBS0n7cfdN9EJP+vdI5yY3x31KpZFpfqt0L59S9SvXhW12o7Hllu+iEUoXt7diuE1i+GHv/wN35VogG7DVuNyYAwjiIiIiIjSxAgilWSnwy1+iHfqyXGvcXd5BxT7+99Rov92uITKF6MQ4LAM3Yp+g++r2+DAI+WLiPQ4ijmtCuK7Ql2x6Wk4IoMfYH3jH/BtrTm4Gpj0A/1waeVI9J20HVdeRAIIwqMNPVD2+59QqtdGXPdPeJTv5bnoYJUD+RrNxsWAhK+9vbcQTX8pgAbLk0qMiIiIiChtjCBSiUXEqaEo/eM/kbfxSExZvAIrVqzAytXrsGnLJqye3R+NyxZC4VqjsdnxdcK3RD/HiSnW+PGHmhh3SfXTHsxHvZ9yoOb8ewgIuIu1jX7Af8r2x7Kj9+DmF/b5g0XoBcxo+Av+W34cDrxKPiEG99e1RYEfK6DfATktLgZel6ajwc95UXvuPYTzEBARERERpRMjiFRiEXl6GMr89Ff8M1dJlK9mDWvr6qhUIif+Li+UPxdCY5sduOEZ/Olb3l7Gpu558ecfy6LjjG3YvHlz4tiEFTO7ouRf/oh/t94O7+AgvDg0Ci3K5kFeq+po1HkwJi3egH3nbsHtfUzCz3qyFj3L/hNfl+6AUcu2JPtZ6zG1ZyV884cfUWXyTeVW3hJBDRlBRERERJRBjCBS+XQ6XI0FTvh4E2z/m9g5ugFKl2yIgetuIkDOXEvy+jzWd82HP/79RxQsVxkVK1ZMHJVQxboemrbpjn4LzyHhkp84+N+zw4ap/dCmbkWULJQTP+cuhSZjduJGQATwZDW6l/0P/vpDfpSoWCnZz6oC67pN0LLzKMyyfaQcCfJkBBERERHRF2AEkUqyGyPMcoRH8tgJd8KOgWXxw/el0GGxA3wTLv0Bgm9hez8rfFukC9anuFv1O7g738V9z2ADH64ahyDPG9gzvDL++3+F0GPbQ0QFHsWICj8ib9tVuJb83xYhXnhw7z6e+8tRo0i8uDhNOR2uznxnGLp/AxERERGRIYwgUkn97nDxzw5iUu2v8Yd/VsaAbY8RohyBCcCdTT1Q5ocCaDjnOgISb/ImN1G4vakzCn+dC42WOOF9aCDc7tzAvWcBn0VL6PEBsPq+MNqsvIlgeOPQoHLIkbcRxhz0xMerhkLvYMugMvj2xxoYfVJu1xCbcE3QT7+i5hxn8LNSiYiIiCi9GEGkEouIY31R8B//D2UnX8FzA4dYPI9PQdPv/gf/W7QTFl71V0Il1vsi1vYsi3zF6mPA8sM4f/Ui7NaOQ9vSeVGs6Qyc849GRKADFjYtgVINR2Kp7Xk4Ol7H9fN7MaNDeRSrMRLbbifc9i30xhoMqVEABax7YMZuezg6nsHWyR1QOV9h1B25Cw+VyIpHwL1N6FPiJ+RrPAOHz1zBo/dxBo42ERERERF9jhFEKrGIvDwdzSuXQ8fVd+GtPiVN4YNzi7qhbN4SaDPDDs8SD8NE+TnDbn5/tLAug6KFCqFY+froOmETLnpHJX5fDELczmCNTRc0qmSFogUKoWjZmmg+cBGOPvRH0qPE+4cnsGZUG9QqWxQFCxZBKet2GL36NJ4kux8Dgj1weXk3WBcpCCvr3lj/MAKJt1cgIiIiIjKKEUQpxcUgOioK0bHxxj98ND4WURERiIyK+fxUtLgYREWEISw0FGHhkcrPUIuPiUJEeBhCQ0MRGhaOyGjDJ7N9elwYwiOiYOBHJf574Qn/luEfQ0RERET0GUYQERERERHpCiOIiIiIiIh0hRFERERERES6wgiij2JjYxEdHa2bERfHi4iIiIiI9IgRRIqHDx+ib9++6NixI7p162bxo02bNpg5cya8vb3VTwURERERWThGEClHRTZv3oxy5cph3rx52LJlC9avX2+xQ/6+4cOHo27dujh27Jj66SAiIiIiC8cIIkRERGDVqlXo0aOHcmQkKipK+ZqlDvn7rl+/jk6dOmH37t3qp4OIiIiILBwjiJQwWLduHYYNG4b379+rJ1ukx48fK6f/7d27Vz2JiIiIiCwcI4g+RtDgwYMREBCgnmyR7t+/j969ezOCiIiIiHSIEUSMICIiIiLSFUYQMYKIiIiISFcYQcQIIiIiIiJdYQQRI4iIiIiIdIURRIwgIiIiItIVRhAxgoiIiIhIVxhBxAgiIiIiIl1hBBEjiIiIiIh0hRFEjCAiIiIi0hVGEDGCiIiIiEhXGEHECCIiIiIiXWEEESOIiIiIiHSFEUSMICIiIiLSFUYQMYKIiIiISFcYQcQIIiIiIiJdYQQRI4iIiIiIdIURRIwgIiIiItIVRhAxgoiIiIhIVxhBxAgiIiIiIl1hBBEjiIiIiIh0hRFEjCAiIiIi0hVGEDGCiIiIiEhXGEHECCIiIiIiXWEEESOIiIiIiHSFEUSMICIiIiLSFUYQMYKIiIiISFcYQcQIIiIiIiJdYQQRI4iIiIiIdIURRIwgIiIiItIVRhAxgoiIiIhIVxhBxAgiIiIiIl0xgwiKx/vn13B0y3LMm/obJkyYjJlLtuLozZcI++xxgXh6cTfWrD2IKx4Rn035TEwIfB33Ys2a3bjkGY4Y9fTQR7DfvgjTZm/C6Qf+iFRP1yFGEBERERHpSfZGUJQnrm6djAHdOqNT567o1rkD2rdrh9YtGqJW/Y4Yttweru/iEh/8ANv6FsT//rkyhhwJVP2gZMK84WBTHP/7fwXR76QfQpNPC3qIo9PqIsef/oIfq43A9hsvEZ58uk4xgoiIiIhIT7IvgmL9cXtdT5TNWRB1h66D/fOQj5PiXjtg28Ay+O/X+dF49jm8UErmCfaOqIDvfmyAcSffJf9Jnwt/iRvTquK77ytg5LmAT0eT3rvg8MQayPG3b1G0zSLYe6ZyNElnGEFEREREpCfZFEExCHZeida5vkbB7rvw0NDhmHf2mNehAip2XYrTr+ULTzMeQfbvEC1fC3TCPpsq+PEfP6Bk51W4+kr5KiViBBERERGRnmRPBEUH4PaMyvj+32Ux5ryvkVPSIuH7yBl37rnBX7lwJ4NHgn6oDJurwQgLeIDDE2oh7w/5ULnPJtz0j1V/h+4xgoiIiIhIT7IlgmKDXLGpxQ/4Jlcv7HELQrz6AQY9Tn8ETa+OH34sj4HbjmL90Er471df4W/V5uGKf/r+Jb1hBBERERGRnmRLBEUH3saCGt/hm5Jjccr7s1sXpCL9EXR7Vk18+88fULRsPnz9zx/ww7//hL8U6ozFl31T3i2OGEFEREREpCvZEkEx712wov53+KbIcNh5fbohQurSG0GvcGdOdfzjD1/hf/5fbtQYtgUHV/dBtRx/wX9qTsWR5xHpPPKkH4wgIiIiItKTbImg+LCXODEgP775oQVWPXwHY1fphL72xLMn7ngTJMdv0ntN0CvcnlkZ//zLf1G89248CJYv+uLk2OrI8ce/o/RwWzgHJd12mwQjiIiIiIj0JFsiCHGh8LbtgSLf5ELbDQ9hOGn8YTesKvIWaIkZ9u8BuGFfuiLo093hRpx7i483wvY/i+kNfsWf/68wuq+/iTfGykuHGEFEREREpCfZE0FyXZD/Bcyo/St+rjgKu++9RljyKIkLQ+CV2Whd8B/4vvFsHPWSE9jkFtnl8d1PjTDR3vD95BQfI6giRp8P/OzOc0GOc9G64F/xh5/bYr69N68PSsQIIiIiIiI9ybYIAqIReGMJOpXJi0K1+2OO7VXcd/eGz4vHcDw4E10r5sTPpXpj2cVXiFUu4nmE3UPL4F9fV0G/rQ/h4+Pz+Xj1Bm9DY4FwH1yfXAH/+roUhp7x//RhqYoQOK/qAKt//A/+Zv0b9roEIZpnxjGCiIiIiEhXsjGCRBTePT2D9ZN6o0WNsiiaPw/y5CuMklUao+tvW3Du8btkkfIUh6c3R95/fYPvc+RCnjx5Ph+lG2Cg7Wsg4jWc5jdA3ny1MOHi25SfQRT1ENv6VkLOf/2AOtNO4FF678tgwRhBRERERKQn2RxBCaJDAvHG5wXcnj/Ds2du8PB+jbch6pPVohEeFIBX3p7wcJPHqYabJ3w/xADxsYgK8sOrV354HxFn8E5wUUH+eOXpAZ+3IYjkkSBGEBERERHpillEEGUvRhARERER6QkjiBhBRERERKQrjCBCZGSk7iLowYMHSgTZ2tqqJxERERGRhWMEEaKjo7FhwwYMGTIE796l8hlMFuTx48fo27cv9u/fr55ERERERBbObCNIjk54eHgopy09fPjQLMajR4/g4uKCO3fupJim1fHkyRPcu3cPU6ZMQceOHeHg4ICnT5+meJy5DpknMuT33rp1K7Zv344dO3Zg586dRsfu3bsxZ84cWFtbY9CgQcrRIPVjOLQxZF6eOHFCWU5I2KpfHxwcehyyTJSj3c7OzimmcWhzyLaHbBPJthERZQ6zjaBbt25h6NChaNGiBdq3b5/to0OHDmjbti2qVauG4sWLK/9b/RgtDvm72rRpgzJlyiBv3rzK892pU6cUjzPXkTRfqlSpgnz58qFfv34YPny4clTL2BgxYoQSfIULF0a9evUwZsyYFI/hMO8hywb5r7xeZT62bNlSmafq1wcHhx6HLMObNm2KsmXLonXr1immc2hryHquYcOGyrw8d+6cenOJiL6Q2UbQq1evcOHCBRw7dkzZ05vd4+TJk8qeZ1mxyIbX0aNHla+pH6fFceTIEWWDsnHjxtizZ4+m/i75XeWUtq5duyrz5saNG8oeUDkyYGzI9IMHDyobzvPnz1f2sqkfw6GNIdey5cyZE7t27dLU65aDIyvHqVOnsGjRInz//ffK0XG+N7Q9ZP7NnTsXDRo0UNbRRJQ5zDaCzFFoaCimT5+OFStWqCdpnqwoR44ciaioKPUkTVi1ahUmTZqk/rJR8tlS/fv3x+HDh9WTSEPk1NSqVasqdzgkok/kVGc5EhQcHKyeRBokp8MNGzZM2WlJRJmDEZQBr1+/xm+//YZ58+YhJkb9Ya7aJnvS5bSw+HhDHy9r3oKCgpS9nmPHjkVYWJh6skFyFIG3yNa+q1evomLFivD391dPItK127dvo1SpUspZFaR9165dw8CBA7njjigTMYIyQMsRJL+7HC2R0JFYSD5GjRqlXBsjK0w5LU49Xb5n4sSJyoXn5ogRpF+MICLDGEGWhRFElPkYQRmg5Qjy8/NTNvoTZ3aGR8mSJZXD8eaIEaRfjCAiwxhBloURRJT5GEEZoOUIErLB+NNPP6UInLTG//7v/2Lz5s2Ii4tT/0izwAjSL0YQkWGMIMvCCCLKfIygDNB6BL1//x42NjYpIietUbt2bbi7u6t/nNlgBOkXI4jIMEaQZWEEEWU+RlAGaD2ChKOjo3LbVHXoGBtyFGjbtm1mexRIMIL0ixFEZBgjyLIwgogyHyMoAywhguRo0Lhx41LEjrFRq1Yt5UVizhhB+sUIIjKMEWRZGEFEmY8RlAGWEEFCVo7fffddiuBRDzkKtGPHDrM+CiQYQfrFCCIyjBFkWRhBRJmPEZQBlhJBHz58SNe1QTVr1jT7o0CCEaRfjCAiwxhBloURRJT5GEEZYCkRJO7cuZPq0SA5CrRz507Exsaqv9XsMIL0ixFEZBgjyLIwgogyHyMoAywpgiQcJBrU8ZM0atSoAW9vb/W3mSVGkH4xgogMYwRZFkYQUeZjBGWAJUWQuHfvnsGjQX/84x+xa9cus78WKAkjSL8YQUSGMYIsCyOIKPMxgjLA0iIoODgYo0ePThFB1tbWePnypfrhZosRpF+MICLDGEGWhRFElPkYQRlgaREknJycPjsaJNcCaekokGAE6RcjiMgwRpBlYQQRZT5GUAZYYgSFhoZixIgRHyOoevXqmltpMoL0ixFEZBgjyLIwgogyHyMoAywxgsTjx4+Vo0FyFMjW1lY92ewxgvSLEURkGCPIsjCCiDIfIygDsiqC5DbUERERCA8Pz5YREBCAvn37omrVqnj27Fm2/i7R0dHqpydN2RFBMv/Vv7seh7xWMvO9kFFZEUHx8fGIjIxM8bfqccjzoKVTY+kTU0aQLLfVrx09DlkeZtXHSmRWBMn7OTvX8eY0oqKilOU96RcjKAOyIoJk42358uXo0KEDevbsmW2jSZMmyqlwXbt2Ra9evVJMN8Xo3LmzEjJPnz5VP02pMnUEvX37FmPGjFGeK/XfoLfRrl07TJ8+HYGBgeqnySSyIoLkZ8prsUePHin+Xj0N+ftluXTo0CH1U0QaYKoI8vDwQP/+/dGtW7cUryG9jbZt22LZsmVKZGS2zIqgDRs2oHv37spQ//56GrKMHzRoEG7duqV+ikhHGEEZkBURdP36dTRu3Fg5ErNlyxZs2rQJGzduNOmQf3Pr1q3Ytm1btvz7MjZv3qyETLFixZTfJSNMHUHyQbM5c+bEzJkzsX379hR/i16G3EBDVsrymVIODg7qp8kkMjuC5Bq52bNno3Tp0sp7QV6X6r9bL2PPnj2oXLmysmySvaakLaaKIDs7O/z666/Kxr+sw9SvI72M3bt3KzsNGjZsiCdPnqifpt8tMyJIjnrI8lJ2dGbn+j67h/ztspyvXbs25s+fn2VH78j8MYIyICsi6Pz588qC8+TJk8reo+w6TJ2d/7YM+bffvHmDunXrYs2aNeqnKVWmjiAJ15IlSypHrPR82pScSnDmzBl07NhR+W92yOwIev/+vRK3suGf3e+J7B4yf0eNGoUBAwYo7zHSFlNF0IEDB5SzCOQ9qPf3i2xcy/Lw7t276qfpd8usCLKyslJ2YMm6S6/zS/522fiVbYapU6dm2vYcaQ8jKAOyIoIuXLignHbi6OionqQ7snBq2bIl1q9fr56UKlNH0M2bN5Xrp7J640ILJAj79OmDc+fOqSeZRFZEkOwZlM/PImDatGkYPnw4I0iDTBFBslEtESQ7r2T5rXdHjhxRlofyQeSZLbMiqFy5csrRO72TU7hlh9eMGTMybXuOtIcRlAFZFUFybu6VK1fUk3RHPry1efPmmoggOU3Iy8tLPUl3JELk1ApLiiB5f8tt4wmYPHkyhg0bxgjSIFNEkBz9kNPgihcvztdI4lExWR6aewTxOj/Az89P2cnDCNI3RlAGaD+CQuFzfTNGtaiBms0HY+HF1wh9/wi2o5qidtWqqFqlBup2XwGv29sxq0cTVKtZCzWtq6Nai2m44uyn/mGZjhFkQMwbOK4ZgQ51rVG/9ypc9IoAYu5hq00n1K5eFVWqVEGjcSuxcPZMjGxorVyfU9O6BrpM3I7bmX9tbgqMoN8nyt8ZB35rj/o1G6PrtGN4FhQCn2OT0alhNVSrWgVVqrXHPHtH7J07GO2sa6BWTWtYV2uEUZuvwlP9w7IAI0i7TBFBclqRXFuRP39+k7xGYkM9cHZ+H7SoVRsthm/H3bdRQPAVLBvQEjWqJSwPm03dguVTbNC/njVq1qyBGtXroN/Co3iUOavsVDGCPhf2aB/m92+EqtXbYuL+B3gf4wX75YPQyLqaMq9q9FmAzQfO4PDExqhW3Ro1a9VAteZ9MPtMgPpHZTpGEAlGUAZoPoLe3MGFVQPQbeYmrF64CLN/Wwi7+5cxp30HTNu4HXv2HcChU3cR/MoJlw5uxZRW1dGs/1hM2XoeL16HqH9apmMEqcUg0vcQbPpNwYKFq7B+xkBM2OsMD7cDmDzcBuNmbMa+fftw+Oo93Lh8ESeXD0Dn9m3Qov9S7DvnhJeZ8xJNFSPo9wiEx80NGNhtOtatWoLlM0djht1jXF/QBd2mrMTaXfuwb99x3PT0wf3LR7F3ZnvUbdYLA8ZvwMm7nniv/nFZgBGkXaaKoLlz56JgwYImeI2E4d2zXRjWYyqWL1uB1dMGY/KRp3j1dCuG9xmPGYu2K8tDO8f7uHn+NI4s6oEWrTqh0/BVOHL1CfxMcKd3RlByIbg0dwymTp2GlVvmYPBv2+FwZis2z5+AviPXKvNq/7k7uP/4GR6dW4sJQ3ugSe3OmL3zMC49T996/PdgBJFgBGWA5iMozA+et+2w++BxHN67G1vWHsANdwfMb1kVTdp1ROeuPTFglQP8E48gvNk+DRscnuGN+udkEUaQWhxiw91x4eBhHLU7ikPr52HDJQ8EvDqB6T1ao17D9sptusdtuIhnykcdOOLIvl3YfFX9c7IOI+j3iMAHX2cc330Ax4/sx76Ny7HzhhfuLO+Iek1boU3nrujaaxFOvviQ8PB3+7Booz2uvVD/nKzDCNIuy4ugGES+f4Iztgdx/OgRHFi3AFtuvEKgx26MaNUcjZt1VJaHU/Y6QfmLo09jy/ZDOOys/jlZhxGUXAxe3ziJ43aHcezoJizceA737xzH9qk9ULNmG2VeDZ2/G9feJTza685prJ1/BFm/uzUBI4gEIygDsieCohD60BYzR/ZF1w7t0KZNG7Rp0w4duvbHmPm7cNU7/Rejhvs8heOe1bC96gQnxwuw37MG269cwfzO7WGzcClWrl6HzefdEBQpj47D0zXjsPTkbTyNUv+kdIh+iRv7FuO3gV3Rvk1bdBkwGavsHiC1T5OxnAgKwK09i2HTsys6tZP51QZt2rZHl35jsWCvI9xD1Y83Ij4Kkc+PYePukzjn6Iz7DjuwbM9teD7Yi9mjx2CYzSKsXr0atpefwldejoGnsHPzOqw4kbhWyaAoz2s4sHQCBnVrhzZtO6P/b6tw/NF7pLYDVY8RFB/1DMcXjsfgbh3Rvm3C/G3bvjN6j5iJjfbP8T69n70X5YeXt22xes8l3Lp3E44XdmL5zuu4uag7utnMxtwVq7F63Wk8CAyD8iPdN2PGssM45ZT+9/wn8Qh0ssPaqUPRs2MbtO3UF2MW2+LGm9TmLiNIy8wngl7i0vqZGNGjMzomvl/atOuI7oMmYrmdM3zTu36JDcGHhwexdtc5XLl1D3cvb8cy23t4dX8zbPqPxrgpS5Xl4eFb3ngrL+vX+7FyzXbsuBys/knpEup6Djvmjka/zm3Rpn13DJmxGfYeqb/3LCGCQp+ew45pvdGzS/vE7Y02aNepJ4ZOXY9jzgEJy6J08cHFPbY4dPgSXB7cwt71h/Dcfg22LvoNPQfMVebV9hM34KassoPhcmE/Fk3dCW/1j0mXQDy134zZI3uho/y+PUZg1q7r8Ehlc4ARRIIRlAHZE0EheHOgO3L+6TuUbj8QI21sYDPOBmNG9EenepVRrfUE7Lznh/SsRyJfP4T9kn7o0rsvenXqjqEjJ2Ld5QuY2rAa2g8YguGjRmHs+E0IeCtb6XF4tHgI5hy5jkfp+eHJhLidxuIBTVCvWSf0GTISY8eOwYgBXdGqXkN0mnkSz0MMb3hZTgQ9w/q2BfDDd6XRsI8NbGxsMG7cWIzo2xp1q9VEK5uduPlW/T0GxEcjyn0/pg8bhF5de6Jvr3botugS3B/txsQendC87UDlFsbDZu3CZdcoIOgENq1ehvmHU0tNQ6LgeXwe+rVojGbte2PwyDGwGTsKg7s2Qq0GvTHv+GOj8arHCIoNOYPRRf6O/xZphu7DEuev8nw1RNUqTTB4nQPS2FZKEP0WPtdWY2iPvujTozN6DhqA4WsccG1Wc9Tv0Bt9h43CqJGjsfLcCwTIx1i4r8b4uXthdzt9r/GPIl/hxtrhaF2/Cdr1GIThY8ZizKjB6N22Huq0nYi9DwKh7PcwgBGkXeYTQXcw1/oHfPurNdoMTHy/2IzBsJ7NUKNKXXSdfRQPjH1rcrGh+PBgG8b174/e3bqjV58u6Lf6Bnzub8DAVh3QvuuQhOXhgkNw8o4FAvZiweL12GCfnh+eXBAe75mELo0bo2WXfhg6agzGjhmOAZ0aoFbToVhzxcvo0QpLiKC3xyagUZ6/4qdKnZV5ZWMzDjajB6Jrs9qoVr8X5p7yQrT6mwx6gwurpmBU907oNaAHmneeB8cTq7Fpah/UbdhXmVcjJq/GgRuydgnD3TM7MXPspoxf6xh4DTsmdELThi3Ruf8IjLaxwdjhvdCqXl20Hr0Rl16qvyEBI4gEIygDsi2CjgxGqdwtsOhx8hqJwkuHFehQLBfK9l0PR7/0fNhXLIK9HLBt2nAMHTENq44/QUCwN65umoqxw4Zi6JChGDF+C/wDEzay3t45j5vPffE2PT86UcQrB2zoVRGFynTGvKMueJP0vZGeuLSqG8rkrozhB5/jg4GlqOVEkBu2dC6JSm0X41zimUyKSA9cmtsOFQqWR7uVzkjfqjkSXvYbMXfsUAydsAqnnr5HbPQLXNwyF2NHDsOQIUMwZNZuXHGLAuI88cD5Lm49z8gdEWIRdHsFupYtgqo95uPA3TcfV3BxPhextGUxFKk7Gltdkv8hn+gygoLtMalybtSZ4gDf5BP8b2NH77LIZ9UeM86+TNeGQnzEGzjtmQObocMxftEB3HkTAr9buzB/wnAMGzoEQ4aMxqrzngiU91GQM67cfAq3NxlY9kS9xeO9w1G7kBWaT7GFo9xYQxGPgNvbMKxSbpTquxU3/QxnECNIu8wngpywpGFBVO2/F87J3xTBj3Dcpi6KF6qDgbueIz37DRAXhGfHlmPqyGEYOX0zLnuHIibsMY6vnIZRI4YmLA8XHoHzy1gg2hW379zHfa8M7MWLC4ev/XS0KF4EdYatxekn7z8e+Qh/dgLT6uZH0dZzcdzI4XxLiKDAk5PQvGp1dN34+Xm3gfd3YEKTwshXbQJOpvcc+be3cWT1JAwdMgKzbe/gZdBrPDy+GhNHJ667Jq3Gwdty5kIs/F48xvXLD9K5XkwU6wa7cfVQsnQjDFx9AU8/HvR7h/u7B6BOiXJoPt3+8+V0IkYQCUZQBmRrBOVqhOmOvvh8Ez8ODxY1QuGS7TDr9EtkoFWyRlwAbq/rjfK5KmOUvYFTsqKeYmubX5Gv23bc80/521pUBHUphQrNZuCgh2pSyBUs71gWRWpPwUXD61GTig19gO0d8iFX/dk481o9FcC9mWhUvDo6LnQwuHLScwTVGHMCD9Vt6L4BPUsXR51RtnDNnEXE7xCHoCf78Fu1nCjW9zAMvVoDDnRDwbxtMP+Ct8GjQYwg7XJxcUHp0qXx9m16Djt/OVn2phlBjQqiUvcNuKRexvgfwcS6VijTfhnuGHoBmljk68tY1jgn8rZZh7sGls9Rl0ahYoH6GL7zvmpdnMAyImgyWlSphHZL1X9DDLxOTkC9vMXRbY8vsn3xJo1lPxKV85dHt9V3DdwoxhP7htRE+ar9sctAtDGCSDCCMkA+XVk+XGv58uXqSV/szp07ysa4bMwZlloEAdEXx6FmQWv02HAD6u0xU4v3PYNlXUohb9PVcFVPFFHvcGd2FfxsPQVnPFKuYZIiaPfu3epJaVqzZo2ywZZenp6eGDRoEI4fP66elKYnT56gWrVqXxZB8MLpWU1RtlhbLHuinmZq0QhyWYpGPxdFz91GrmUJscOwypXQaMQuGPp15XXbv39/3LhxQz3JJJydnZUPro2OTs9xl/RZsWKFcqqGMalGUPxNLGpRHBVazMXJrN32TFv8WzjtGIhyv9TAjHspdzrI0aC4p8vQIGdlDN7jDEM3pZX3lJwSY2ni4uKUIRs/8l/1NFnWyw6V0NBQZSR/fcl0WVa9e/dOGfKhizLkM3OSyPf4+voqO87kvy9fvlRiRDZChfy78jVZDslK2MPDA8+fP8ejR4+U/7q7u/+uIcsm+eDOIkWKKB/ELT9f/ZjfO+T3lt936NChyJcvn/KcGJZKBOEJdg2uhjKVB2H7l10MkonC4HN+Cqx/LIMRZ98aPsXcbwe6FK2ADvPPGtypcPDgQQwYMABubm7qSb/bgwcPlJ0zv3eHU6VKlZTf0xjjEQR8eLAPI6v+inLjLqfYFjE9fxzuUQiFGk2HnZuh5X8cbi/rhHqVmmLqtZSn4DOCSGgygmQFI0dQZMN3w4YN2Lhxo0mG7PFq1KgRWrdujXXr1mXKvy2fxl6/fn2cPXtW/WcmSj2CcGsmGuSrhLYrLpnsLm7GhN3ehOH1CqDStDuGL6aPDIDjlPL40XoqzrxI8ZcoexKbNGmC9u3bp3ieNm3ahLVr1yoXU6qnyUZr27Ztledx1apVKaYbGlOnTlU2nvv27ZtiWlpj3LhxKFasGHx8fNR/QqLUIugNLi5uiUoFGmPWbfU0E4sPgu+BPsj3S3uscvE3fPrW+wMYWKECGozcg6fqaQAuXbqkfFq8rJwz4/1gaMi8l2Ho58sGeu7cubFkyZIU075kyAc/tmzZUvnUd2NSjSA8xNoOxVCu3lTsz+6NushHODu1MX4tPgb2Bs81ikfsg/molUMiyAWGmm3ixImoXr268rzIEdqk96CDg4MyXTb8r1+/ruwYkiHvxaTHJh2dCwkJwdatW5XTphYuXIgFCxZgzpw5OHPmzMcjt3LqlhyBk8+cmTVrlrJhIj/HyclJmS4b2LLhJl9PGrIBI8vhpJ8hQbF06VLld5Zp8h6fMGHCx99VyAakvH8l7pICT37npB0aEjMrV65UjvjLkO+fNGmScjtfCSMhwS87w8aMGaP8LPkZ48eP//i7yu8jj5cjaDJNjlBLKMjzJusuIf+e/HyJ7dGjRyv/lb38nTt3Vh6b9LUvHfJ7d+rUCd99952yjPu9P8/QkL9LTmmSo00SW0l/W0qpRZAnDo2tjnKle2D1Y/U0E4t9hYdrO+DXPH2w92W44RsAvNyEdoXKo8OCcwYv4Le1tYW1tbXyGlQvW5KWX5s3b/7s/6d3yGtNPgdOdt6pp6V3yPsyZ86cOHbsmPpX/yi1CAp9ehwT6uZA0cHHEWLwCTKhOEdMLZ8LdUYdMHjUTnbyXV/UFrXKNcX06ym3SBhBJDQZQbLClA3eMmXKKBu/EiVZPdq1a6cEkBz2lw1g2VCSu6aoH5eR0bFjR5QvX14ZJ0+eVP+ZiVKPoFg5ElSgGrqvz/4jQcGO6zCwTgFYLzJ4HAgIccHqJj8iV6ctcFKu9P6cbOgkPceyMZD0PHXp0kX5ML4//elPSiQlf95lvjRr1kyZJ/IYOZKU1mtCvqdOnTr49ddflede5oP6McaG/NsST3ny5FH25BqWWgR54fTMJihbtC2WZvdKP/4DXu7uil9z9cZW13cGV/qRjhNRu1BltF141cDpBlCWFSVLllROD0zrec/oSJrPMl+//fZbdOjQ4bPp8u/JBvq///1v5XUh81X9MzIy5Pvl58gGndy+1ZhUIyj+Jha3KIbyzefihKGqMKUwF5z8rQFylJmOm4ZmLmLxans75MrZErMvehk8HU421HPkyPHxfSfvLxkSNSI8PFw5civT5X0oQ/53t27dlCgREhaygS/vucaNGyvvcfnfEhsfPiQ8gXZ2dsq0Bg0aoGHDhsp/ZRlw+vRpZbocRZFIkn9blr2tWrVS/jty5MiPp2HJ6V+yUS6vC1lmyDyUHSrJN/hkI1Xe7xIG/fr1Q48ePZQNoadPExL/zZs3yv+XEJEdVDIkILZt26b8rULCXx4jESCxIUM2epMiSH6f/fv3K8+dxJKMKVOmKD9DglDIDhTZqSZBuHjxYiXi5e+bPn268v8lACXovnQkHc38+eefld/19/48QyPpZ8pzKO/DL4sgORJUFaUrDcRWQ4dWTCnaBy7LW+HnAiNwItDwdZWhpwahVK5aGLLzPgz9tXv27FGWVxIr6uWRLL9q1qyJP//5z8qOo4xsP8jrWH6m7PCRIzkZWWclDXlftGjRAv/4xz9S2d5IPYI+PLTFiKo5UdbmEsIMLlNMKPYixpXMjWaTTuChocN2ca7Y3q8yrCr0x64UrztGECXQZAQdPXpUWQHK0RNZqciKNKuHLOBdXV2VFYu8cWSlLBvt6sdlZMhFpfK3yAo7+d7Kz6UeQc9WtkDxEq0w9bhXtl8TFON6ANNaFUOxAScTVxAR+ODlghuPAxGLOPiesUG17wug86aHkA/6VpN5KRs5smKVhVLS8xQbG6vs1a1Xr16K+S3/39vbW1mQyZ5XOfUkrfki3yPnV8vzLnvlZD6oH2NsyAaOvb29ch3KF50OF+6Idd0roEiNCThjqCpMKhxvL09CxR9rYtLlN4mvn0C43nKCm78cF/LHsYGlkLtcdyy5ZniLXk6Hkw1eOU9dPW9+75DnWv4re+xlg0H2xCefLvP51KlTKFu2rHL6ibxH1T8jI0N+f9lwlw1R2fg1JtUI8tmOfhVKoMbQ3Sb5hPpUxXrj2oouKJq3M3YkXjIVG/YK968/gK8UT/ANLKj7E35tsQQXfAxv9MlzL6c7yka7RIA8R/J+STqtK0nSaWWyXJQASNrYp+wjp0/JjkI5ZS8ryXtQwtX4PE8lgt6fxPQmpVC69SJcV6/cTC3+HdwODoXVz42x9HHi+yHGH49vOMMrKB6Iccf2jvmRs8YY7Hpo+NQ/uSZI4vvy5csploey/JLlpdysQk6DT2s9lXzI0UU5cirXG+3cuTPFsjA9I+kUTjlyl9p1RcYjKB4v7aehSf4i6LDNywyuCXqODY1zo3yPDbia+BIPfeEMl8eeyg7h8Nvz0KZ4YVQaehCGPlqNEURCkxEk13HIzQTkegBTkjeN7PGbP39+io2ALyV7FWVPWpo3RsjdHPMfJF9LxCPY4yjGWhdAyY6LYe+V3QkkzfMcZ2e3QfFCTTH3mhdCEYbXFxegZ7cxWLhuOcbUK4riLebjgq/hDa6ka4LksL2anEYj0wyRjV/ZkyqnnsgGWno8fPhQOeVJTlvJKDkSmeaNEeTucK0X4nTydogPxNOdI9HEqhQazbyKrN00SY94RAVcxJzaeVC660qccpeNmJc4OmkABtksxvrl/VCvZDm0mXMOzw2eK5cQQXJN2/nz59WTMo2cRiXBaojErOwZzayLv+U1KO/v9NwYofaky5+fEhPmjcvTGsGqeFOMOfTM8DUFJhWF1zdXo0/JvKgx8SyevY9HXPAtrOnbDcPmrMXaSU1RqlgDjD/qgXdGFmcSQRKExvfyf06OqFhZWSnXzVH2MsXd4YRsUMuRu7QiqErfXbib/LTM6DdwWtUN1YpVRZfVTgaPrJhWLILcDmJcxVyoMHg3bryWdckz7B7RE4Mnr8SGeZ1QpVhV9NlwG3LzOUMkgmR5aGzbRG7IU6FChS+6ZkhOO5VT4eSo6e8hZz+kfmMEuTtcNXRZ9/yzr4e/ssfa/pVQoOxA7PE0ssAwqVg829IBZUo2wOB1N5XPmwq/thIThwzGpJXrMLlzFVjVGIh1tw2/shhBJDQbQbL3+e7du+pJWSrb7g53sDfy/rMIWs7aBNsjR3DE7jD271iNad1roUzV7lhwzt0MViAJQlxPYkG7CihTfyDmbd6DbcvGok3h/4c//PEP+Or75lhy653RI1ap3R1ONkzlVBtDzO/ucM+woV0h5CnaCqPWHFEuULY7chC7Vo5D19oVUaPLPBw3dEJ5doiPxKszE9GqUmU0HjgLa3fvxppRDVD4x78rC4Y8HVfggnrvbTKmuDucXD8ip0YZkj13hzuDsVb/Qb4G47F0l8xfOxw5uAcb5/RFw3KV0GrKITgZu1GWqYV748ba7qhWpha6TVuH7TvXYEaXkvjPn/8PX331T1SfcQGeqew3yOjd4SSC5MicXDBP2ct8Iugu5tfMgdwV+2Da5sTl4aF92L54OFpXrYB6g9bjkp/6e7JJzDu47huG+uWqofWYxdi0eysWD6iGnP/+C7766g8oMXgPnNRHf5NJ6+5wEkcSIc+ePVNPSpOp7g4nnxPUuMjPKNVlgTKvZPl2eO8GzBnSCtaVGmLQlgcpzkjJNqG3sX5AXVS0bo8RS3bhwLYZ6FYlP76WjdrvrDFw+1PD1yczgigRIygDsieCIvDh2kJ0qlMRpUtaoUSJEihhVQrlqjZA2yHzsP+eHwwfV8k+Me8e4eTSEehUryJKlaqEOq27Y/iIbmjcbAAWnvJAiJGnznIi6CVOz+uHxmVKo5RVCWWeWZUsjyp122HIokO45WvkCcg28Xj/4DBWjOmIehVLoWS5WmgzeCT6tG6GtoOW4PizYKMrEj1GUFzEPWzo2wTVS5eElbwfS1ihZNkqqNWiL6bsvI4XxrYFs0t8CF5cXIuJPRqjWplSKFejGboMH4WeTZqix8xDuP8u2uD1YOJLIkg2shhB2c98Iug59tl0RJ0ypVAyaXlYqgKqN+yCMWvO4OFbY6++7BKNN7d2Yu6gVqhVrhRKV66PDsNGo0/zJug4dhOuGLtpgoVEUNDtnZjZoSzKlCqZsL1RoiRKV6iBpr0mY92ZZzB8ImA2ivTEtd0z0b9ZNZSxKonKTftgcJ9OaN+mC8ZsuYnXRla3jCASjKAMyJ4IshAxb/Hk6FxM3XoPvkZuK2M5EWQhgm5h8/zVsL3gajS09RhBliEeEZ6nsXDqRlxxf2c0chlB2mU+EWQhAq5g1cy1OH7X2/CdNC0kgixDNJ7brcPadXtwzciiixFEghGUAYyg3y+1a6kYQeYoPtV5xgjSuPh4o3u1BSNIuxhBWUDeL6ksDxlBZiaV5RsjiAQjKAMYQVmLEaQ9jCDLxgjSLkaQ6TGCtIMRRIIRlAGMoKzFCNIeRpBlYwRpFyPI9BhB2sEIIsEIygBGUNZiBGkPI8iyMYK0ixFkeowg7WAEkWAEZQAjKGsxgrSHEWTZGEHaxQgyPUaQdjCCSDCCMoARlLUYQdrDCLJsjCDtYgSZHiNIOxhBJBhBGcAIylqMIO1hBFk2RpB2MYJMjxGkHYwgEoygDGAEZS1GkPYwgiwbI0i7GEGmxwjSDkYQCUZQBjCCshYjSHsYQZaNEaRdjCDTYwRpByOIBCMoAxhBWYsRpD2MIMvGCNIuRpDpMYK0gxFEghGUAYygrMUI0h5GkGVjBGkXI8j0GEHawQgiwQjKAEZQ1mIEaQ8jyLIxgrSLEWR6jCDtYASRYARlQFZEkDzXffr0UTas9U5LEVS1alXl9aB3lhhBCxYsUF5LxAjSMlNF0JEjR9C4cWNERUWpJ+mOViLoxIkT6km6wwgiwQjKgKyIoNOnTysrqsWLF6sn6Y5WIkhWRgUKFMDRo0fVk3TH0iIoICBAOQpUr149Ri4jSNNMEUGyUb17924UK1YMt27dUk/WHXOPIFG6dGmMGTMGERER6km6wggiwQjKgKyIIHt7e1hZWaFKlSro37+/cnqcXmklguRIUK5cuVCrVi3l39TzUTxLi6DAwEDlPZ47d260adMGq1evxrt379QP0w1GkHaZKoIOHjyIn3/+GY0aNcL06dOV14BeaSGC5P1ZokQJ9OzZUwnYuLg49UN0gRFEghGUAVkRQZcvX1Y28OTNOHjwYLRu3RrDhw+Ho6Oj+qEWTysRdOfOHWVFMnfuXGWl1KJFC0yaNEn5mXpjaREkr6WlS5cq78NZs2ahffv26NSpE7Zu3YrQ0FD1wy0eI0i7TBFB4tixY8pOvIULFyob1vLekeW1bFzojblHkESrLC/lSNDUqVPRqlUr9O3bVzmlUW8YQSQYQRmQFREkR35kxeHk5ITo6Gjs3LkTXbt2Rdu2bTFx4kRlg1svtBJBcuSnWrVqyvUjHz58wLp165QNZTlyIBvsX7KC0ypLi6CkGyOMHz9e+f9yis+4ceOUeSt/p62tLSIjI9XfZrEYQdplqgiSjfKmTZsq/9vHx0eJIdl50KFDB6xYsQK+vr7qb7FYWoggeX+eOXNG+f9yOv6AAQOU9a6cBnz27Fn1t1gsRhAJRlAGZFUEqe8OJ3fZ2bBhgxJCsiKRjcCHDx9+9n2WSEsRpL47nKzoZeUvG8syz5YvXw5vb+/Pvs8SWWoEqe8OJ+/PIUOGKHtOBw0apFwPFhsb+9ljLBEjSLtMGUHqu8PJRr4caZCjQrKu3rRpE96+ffvZ91kirURQ8rvDydfk95btEDmrYcKECcq/ZekYQSQYQRmQFEFy96jMOo/20qVL6NGjh8FbZMtKQzamJQxkI1D2qj1//lz9MIvxeyNI9tindy+9RKXclW/fvn3qSWmSjQt1BCWRr8mCVf4OWals3LhRWdhaKnOIoEqVKmXaBpa8luS1po6gJLIHVd6vLVu2VKLb0vecMoK0S5ZTchF8Vt/gw87OLkUEJZHl7OjRo5Vld79+/bBnzx6Dj7MUWR1BsgNGnu/fQ/59Q7fIlrv7bdu2TTmKJzt75HRgY3+HJUiKoJkzZ2ba9hxpDyMoA2Rvv42NDWbPnq3sPckMSREkG3PGyEpMNgSbNGmi7I3evHmzRZ5v/XsiSPbejxw5Mt0RJBtpvyeC5Bx4QxGURFZyct61/M6jRo1S/p2s3iObHbI7guSaOtnQy6wIkteg7OSQ11Jq5EiQbCx07NhRee3JNXzpfe1pCSNIu+SIdZEiRbI8guS90LBhw1TjRk7rlqMYsnEtp3nLOjyz3rPmJCsjSJa1ss4yFDAZYSyCksjZFCtXrlR29MjfsmrVKqN/j5bJ2QNyFEgiKLO250h7GEEZIHeOkmsFZM+zbPgsWbJEOQLxpUPuPCWnZNWpUyddG5Genp6wtrZWZpicXmBpvjSCwsPDlXkhp37IQk0ubFc/18nHsmXLlL2TsrEmG9dr1qxJ8RhjQ25lLnvjZONCzn9Pi1zr9cMPPyjzTO6iZGmyO4KuX7+O77//XtmwkqOm6vmVkSGvC7m7lWzQycZGesj3ybyVayLevHmjnqx5jCDtkmVPjhw5lCPkstxSv95/75CfKacAd+nSRfnctPTcOESOpP7f//0fvvvuO4u8+U9WRpCLi4tyuposayRM1PMjrSHrSNnB89NPPyk3s0iL3EJbdvLI8k3+Jksjy2tZtsnHIWTG9lxGhswHObMntR2pZBqMoAyQawBOnjypbKjLHi25/kOu2/k9Q65nkIWi/NzUyEJz7dq1ykKpbt26Bk+f07ovjSDZiyMbw/J8yt4r9XNsaMiCT25zXaFChRTTjA2Z3zLkpghyC+WXL1+qf5XPyApPNhTk35IbJ8gRJEuT3REkR2flwl6Z75nxfpTXmASu3JwkNfJalYuK5ShfzZo1lfCWm2RYGkaQdslnXkkAyYZz0rJL/Xr/PSPpZ5YtW1aZ52ldj3njxg1lr7t8tIDcCdUST+3OygiSZY6sT+rXr59iXqRnyLyS7ZZ//OMfaW5vyHJVbp8ty0FZvsk1ypZG/kaZV7K8z6ztufQOCdn//Oc/2LFjB0/Fy2aMoGwme8Pk7nDGToeTFZncvlIeIwsjucbEUt80XxpBX0JWQvK5TKmdFmCM7JFL7XQ4iSO5y58sWOWzM37PhazmLrsjKLPJKW2yoWHsdDgJbtnAkSNGclRWTk91c3NTP8xiMIIoLbJBndrpcPL+kB14siyUDU05hdVSZWUEZRbZ8WdsvSche/78eWW5VqNGDeXMCkvcuSPkmiD5++SjLkxN1iOyDbtlyxaLPI1aSxhB2Uyea/Xd4YS8MWTPmVyDJBfhy+k+WX1ud3YzZQQ9ePBAOeVJbnmcUXLbZEM3RpDfX1YgcrqcnB4iv7N8zZJZWgTJCt/YjRFkYSmnocq1eXLkST7o2NIxgigtspPO0I0RZAeeXC8k6zfZgSfvHbn43pJpIYLUd4dLIutEOS1Mdu7I3/DkyRP1QyxK8hsjmPpOn3IKv5xGKp8/xwjKXoygbJZ0i2wHB4ePX5MFpFyfULt2beVwtCX8nelhygjKjFtkJ10TJAtQ2eiTG2bI9WISQZZ8dCA5S4sgQ7fIlmsB5dQ3ORorp0LK0Vg5X14PGEGUlqRbZMuGnZD3htwIQa6fldO95YOkLfF6OUPMPYIM3SJbzlzYtWuXMg8bN2788TOELF123iJbjrjJOo0RlP0YQdlMIkgWmnJNi7wpZYUip1FJAMn/NvUeiuykpQiSIz2y8pDzirdv365cpyXzTd47errTjCVGkLzW5MYZsnKS14lszMmGi2zM6emDHwUjiNIi6ynZeJYbI8jRcbngW3YWyF1P5eYMeqKVCJJtKDlyJ6cmyu8r6zO52YL6aJ4lYwSRYARlM3mu5WiPLIDkYlE5X1cusn737p36oRZPKxEkNziQ+STx07dvX2WFL7ctt/RT3wyxxAiSu/fI8mXdunXKaTzyv2XPtp52SCRhBFFa5JQ3eZ/I0YR27dopN4KRU+T0crQ0OS1EkKy75K5+spyT/y03d5E7z+pp551gBJFgBGUz+ZygEiVKoGjRosrGhmxEmPoNaS60EkGyQZwzZ07kz59fWYB6e3tb7M0q0mKJESQ3PZDbmicdjU06zUePGEGUFokguU19yZIllc+Xkc//0dsGdRJzjyAh/77cmUyO1MmNmSz9Oi1jGEEkGEHZ7NSpU8pGgxz9SesWo5ZOKxEkG/6FChXC2bNndbm3MzlLiyDZgJM9o3K3K7kRiV7jNgkjiFIjsSO3UrayslI28KOjo9UP0RVzjyCZX/Lh0lOmTLHYu76lFyOIBCMom8ndxOQuIeq7w+mRViJI7tonN0BI63OC9MDSIkiOBMkNLoYPH66epEuMIEqLXGQvn12j9x1CQgsRJJ/rZMkf25BejCASjKBsJjdGkMPSsjGpd1qJILkxgnxOkJwGp3eWGEHyWjP2OUF6wwiitMgGtRw5lRsj6J0WIkjen4wgRhAlYARls6RbZPNIkLYiyNDnBOmRJUaQ+hbZesYIorQk3SJbT3cWM0YrEWToc4L0hhFEQrMRJOHACLIsjCDtYQRZNkYQpYUR9AkjSDsYQSQ0GUFyN5pOnTopd+nSOkbQJ4wg7WEEWTZGEKWFEfQJI0g7GEEkNBlBO3bsQPHixWFnZ6eepDmMoE8YQdrDCLJsjCBKCyPoE0aQdjCCSGgyguSDKX/++Wflw9m0jhH0CSNIexhBlo0RRGlhBH3CCNIORhAJTUbQli1blA+rlM8n0DpG0CeMIO1hBFk2RhClhRH0CSNIOxhBJDQbQTly5OCRIAvDCNIeRpBlYwRRWhhBnzCCtIMRREKTEbR9+3YUKlQIBw8eVE/SHEuIIA8PD5w8eRKnT59Oc5w6dUr5r5OTU4o3PyPINGSB//jxY5w5cybF/DE25I6Mrq6u6h/FCDJD8knwDg4OH99raY2kx7179079oxhBlCatR5CshyRO5H2Q3vfMiRMn4Onpqf5RjCAT8Pf3V7ab0rvNIesu+YBz9euTEURCkxEkb+CmTZsqK3qts4QIkgWNfODrgAED0hz9+/dX/rtu3boUG1aMINMIDw9XjqIOHDgQ/fr1SzGPDA2Zv/K+k5Vocowg8yM7JaZOnYq+ffummI+GhrwnBw8erASMGiOI0qL1CJL4l/WRvA+S1k+pDXmMLPPOnz+v/lGMIBOQj0YZM2aMsv5WzxtDQ9ZdCxYswKtXrz77OYwgEpqMINkLIwsaOZqgdZYQQfIikqMKslJIGhcuXsG1m3dwz8kFLvdd4OJ0F7dvOODyhYTpEiFRUVGf/RxGkGkkHQmS+WBvb584zy7g4lVH3Lh9D04uLrjv4gLne7dxw+EyLp4/r8zf58+fM4I0QI4EOTo6Jpu3Mi7i8rUbuHXXCc4u93HfxRn37tzEtSsXcd7eXlnmBwYGqn8UI4jSpPUIioiIgIuLi/J+Sb48vHT1Om7euQdnZXnoDKe7t3D96iVcsLfH2bNn4e3trf5RjCATePPmjbK9JOucj8u3C5fhcP0W7jg5w+X+fbg4O+HuTUdcvXRBWXfJx6moX5+MIBKajCA5vNmtWzd+WKpZi4DH1f1YN38KJtiMw+T5G3Hk1mv1gz7DCMpmIc9x7cBaLJg6HjbjJmPuOjvc8Vc/6HOMIO2If3kTxzctwoyJ4zBu0hys3HcVHtHqR32OEURp0XoEGRV4H+d3rcCcyeNgM2E6Fm09g4fB6gd9jhGUXeLx9sFp7Fg2AxNtbDB++lLsuOiO1GYXI4gEIyibWWIERby8hi2/dUbz5q3RvlMXdOvaFZ3bt0LThm0xeNVV+ER8fjQhCSMou8Ti9eUNGN+tNZq3bIeOXbqiW7cu6NiyPuq3HY11lzyMrkwYQRoQ8xYP9k5Hn1bN0aptR3Tu1g1du3RE22YN0KzPIpx8HgxjLcQIorRYXgSF4cXJJRjaoQVatO6ATl27omvXzmjfoj4adp6M3XffIFz9LYkYQdkgxAXHFgxCx+bN0KpDF3Tt1h3dOrVBo3rN0XPmPtw2siOPEUSCEZTNLC2CogLuYvfwmihctAnG7bgOr4jECSFPcXxOKxTNUxu/nfREiIFlDiMoO8Qj9NFWDK5aGGVaTcDmq14IS5wS+fwoptUtiGJNJsHW1fAGDiPIzMUEwf3YJDQrWgg1h67DWdeknI3Gy8sr0MMqFyoOt4VToOEMYgRRWiwqguIjEeC4FF1LF0SlbvOw/57fxx0EH1z2YFTlPLDqvAznfAxnECPIxOJe4sLsFihTwhqd5tjB6W3ShDe4vrYzqhSriPYLHRHw+XcpGEEkGEHZzKIiKO49XLYORrXcZTDgiIFT38LvY12zX1Co9x64vI1VT2UEZYO4cFcc6F0Yv1r/hiNeKedJzPXJqFe8JrouvYFQ9URGkJmLR+hzO8ysmwsFO+/A0zj1dMB3V3vkL9ARSy6/NHg0iBFEabGkCIryv4H1bfIgV6PFcHivngqEnh6McoUaYczex0jav5ccI8i0PlybhFoFSqPtomvwU0/EM+zsb41y1kOx/2McfcIIIqHJCLp06RL69OmjXKitdZYUQfF+57G6R1nkrb8YD9QTRWQgbs2shJ9rTMPZF0nHGz5hBJlaDIIfrUaLXwqh05bHeGtgIxlBhzG0UmU0GrUHKe8dxggyb+9wf+8wVP6lCn67/vlNSBLEI+7xYtTLWRVD97rAwHYCI4jSZDkRFI5Xl2eizk9WGHjsjcHIweut6FSkIjoutEfK2yIwgkwrECf6F0OBehNx4KmhuRWLW0s6oG6l5ph2PeUp+IwgEtkSQfICOHbsGPbs2QNbW9sMjX379mHUqFHKG3nWrFkppqdnyIav3AVGNniym2kjKA4Rfg9xfv92bN19DFdcgxATE4GgF4/g/j4KCYuBeIR73cTpA9uxfetWbLU9jbueH2BoE0ot/M4WjKxfABUm3UTKYwoSQQG4Mb0ifqw+Bac9Uh5XYAQZFvPGGRcP78TWHYdx1e09IsNfw/3Fa/gHJT3L7/Hi7lns37UNW7dux/5zd+H+wVDRqMQH4/Wh/iiYow2W3/MzPI8/HMLgihXRYMRuPFFPYwT9ftHv8PzyIezathMH7B/CPyoGsSGeeOweiLCoxBV31Cu4nD+MXdu3YuvW3Th2ww3+htb5alGPcW56U+QqNgKnU77dlPd67MNFqPNLZQze7cwIoi9i6ggK97mJ0/u3Y9ueE7jpE4Lo0JdwdffH+9DEZV5sAFyvncDenbI83IFDlx/CJz2/WqwvHm3ohNy5e2CXdxgMLkF9t6BD4fLoMP8sDC39GUEqH57h5qk92Lp1L864vEII4vHO2wve3v4f1zfhfk/heGS3sr2xbc8xXHrgh3RlQfxNzKiUC7VG2OK2wYtWY3BjcXvULt8UU6+lnJuMIBLZEkHyYVft27dH1apVUaNGjQyNmjVrwtraGtWrV08xLb1D/t0hQ4bA3d1d/auZnCkjKOLtY5xb3BtNalZEmUqN0XPGITi98MTNJcOw8OZbKJs58VHwWNsO1apWRtW69VGvahW0nX0CzgZOX1MLurYWA+sUQI3FKT9UUxH6GJta/Yyc7Tbgrl/KhQ4jSC0esWFuOD5vINrVLIdyVeqh48zjeHxnHWYsP4wz9xK3bKMuYfnQprAqURP161dFhQZ9MGXXQ6MX734U9wEvd3XFr7l7Y6trIFLuKwNibk9H/cKV0GreRaS8gTIj6HeJCoL3tdUY3qoOKpetgDodx2HLDU/4Oy/HyPlX4OaXuOJ+vR0D6tdAuUp1UL9+FVRoMQk7rr02ePraZ8JccHJCA+QoMx03U24DKDtF/Gy7IO8vzTDd/oXBPd+MIEqL6SIoFlHv7mPvpG5oVr0sylk3R+9F5/DszkqMX3wGt54lbkwGH8OUzvVQqkxt5f1SvtFwLDnunvaGdbQPXJa3ws8FR+DEW0PvBiDy/AiUy1UDA7Y5GbxZDCMomRg/OGyaiJ71y6N8hapoPGIrHH29cHbTemzYcDrxOp04PDmyED1KFkK1+vVRs0pdtO63GJc+qH+YAbEXMc4qN5pNOoGHhvbgxbtjz+BqKFWuN7b6qCcygihBtkSQkBkvL4TQ0NAvGvK9v+f7Tf2iN8Z0ERSJJ/Y7MbX3TFyV7Zmw13C9eBxXH7/A9WVjsOxOYMJCPT4SLzYPwpAFW7HrzGVcXDsQXSftgr1r2m/U6Me2mNSiKKyGnktc4UQh1M8dT7yCEY94BFydjno/50Gr1U7wM/DjGEEq8REIcV6E7iN24aq7rJQDcP34FTxxWIKpq4/jvHPiKYVh57Fm3nTYzDqCi5dtMXfcBEyYe9LAOdJqYQi4MB5lf6qHGdf8Eo/eBcP7qRt8lSNJQTg/phLylu6IuRfeqL9ZwQj6cjGet3F8ejdMsJe9olEI8rgIu8uueHV7JcYtvQYP/8Ry8d0Jm1FzsWzzaVy6uhEje/2GVYecDV6j9ZmYF7i6pCMKFegJ28SCjYsMgMfjF3gni78wF6xpnhO/NJyL0wZOTxWMIEqLySIo7h18Heag86jDeBAQA8S8wtXDF/DUcTHGLbfHXbfElcoHO8ydPBMzlh7HxSs7MWnIeMxeewVpnvcR/xbPbAeiWI6WWP0sMYJi38PzsRv85O0R/woHexdFzspDseWe4Z/GCErmxQYMHbMaexzfyZ2R4HLuKpyf3IPd1q3YsuVc4pHnaNw/ugUzB47F7guXcGzdAkwdPBJbPdQ/zJAnWF0/Nyr32QLHxGiKeO0Gdy8/5eY+0Q9WoGuZwijfdxcMPduMIBLZFkGUwHQR9B53zu/BlNEHP64Mot56wdvTE7dWjMOaJ0m7UuLhvbkTKpcsiAL5f8F/fqqKYTudYeQuk58Le4xjU5qhSIlOWPvQH5EIxkv7eejVbxa2HNiFWS2Ko2DtSTjhFWbwqAMjSCUuFCEOkzBg9V24JW5fhLx6hbeP12PamrNw/HhJ3A2sHdoQBfMURIGf/4vctYZinVOax4GUeR3x5jQmVcmDyoN2wOGVrPg9cWDCYIyetQWHdtmgRcniaDTxCB4a3jHKCPodQp7eht3EIdiR1JcxgfDy8cVbp5UYt+oe/JNmYYAthtUthwIFCiDXf79HyZ6rceGloXeQWiR8ri5Bl6IF0WTRTbwKlW06R6zo2weT1u3H/sUdUa5gVQze+wQBBo8UMYIobSaLoCg/+J77DX3XP0dg4uv1g7c3Au6vwoRVV/Ek6X0UeRazOlmjQL4CyPfDf1GwxVTsc03zuKlypOn9090YWioPav52Ag/fxwBxj7BtWD/YLN6NwxsHoFaR0uiw9CpeGPlxjKBkXOZg1MrTuJR48VSE3xsEBLrDbuM27Np77eORuRcnF6J7sZwoUCgXfsphhSZTzsHAbZUMiMbDlc1RsmwrjN/zEO9igeBLSzFp5Fgs3HsQS/vXQPEKXbHwiuFgZQSRMJsIkk9flhWnDPk0+8waST/P19cXsbFpn9JlaqaLIODlrWNY1r8fFh67jAt2O7FpzhSsvvAUl+f2wsgtZ3D+xi3ceeqNR6uHYsaJx3ji5oitM6Zj5aE7eBWavoXEh/v7MblhcZRsMgbr7M7h5I4Z6Gr1D/zpz3/GH79vhLlXjVx7wggyIBoRXvswpv80rNpxAlcvHcSckYtw7MhUDJ+xCiu3XcSNGw/wwm0flqzeiq0n3OFzaSsWTl+IPU4BaZ8OJ+LC8OLgUNQtVRHNx6zCfvuzsJ3aEiV/+VpZMORuuwinDF0BnIgR9DsEPIbDmv7oNf8QztqfxOFtszB2+Xm4OSzAwNEbcOCkI27cegrfp+sxZvZhXHP2gPPueZixeBcuehr/bJ/PhLrh4oKWKF2iLvov3Y+TZ/ZhWb8K+P5vf8Efv/onKk88heepHFJiBFFaTBZBCMXbR1sxtPcsbDl0GhfP7sWs4Qtw8tQ0DJi4FlsPXMGNG4/g83w7pi3eDbsrL/D8xCrMmbMGdk/epX06nIjyh8um7qhcojo6Td8Cu3PHsWVMXeT99h/4n6/+iKL9tuKmoYvnEjGCknl/GjNHTcXsZQdw7cYxLLZZgD0XzmLPphWYO3EJTt+4AadnrjizZw9Wz92GxwEuOLVmKiatvQyvkHRuq72/jIWdqqC0dTdM2noWl48vx6DaRfDfr77C/3xXFX02uhid74wgEmYTQdOnT0fdunVRr149ZYGaWSPp561YsULZyDY3powgxAXg0ZHJaFU2P/KXqI8+y67DN9gPd5e3RpmC+ZE/f3GUG7wblzfOwtabL/FalkNuOzB7wW6ccTG8N8WQsJc3YTujD1pUtUKhgiVQoXYzdO3eDNXqDcSKC94IN7LXmRFkQHwonu0fjw6VCyJ/kRroueY6XnmdxsIeNVEgv8yzVpixYSlWHT+DY1fk9f0BN/ZvwNKlB/EsPQcLFBHwvb4dswc0Q1WrQihYuCzqdOqBljVrosXg5TjzItzgkTvBCPo94hHy4iwWdaqEovmLoErHWTjpEYTgp5vQp1px5Jf5W6IvNp1di7k7r+GBh2SPFw4vXoyNB2+k43THRFH+eHh0AYa1rYkyhQuiSBlrNO7WA82r1Ub3ecfx+OMNNlJiBFFaTBdBsl8oAE6bBqNxmfzIX6oJhu1ygZ/7AfzWokLC+yV/ZyzdvxKLD1zAlXuyGygA9htXYtWmMwZvZGBQXDA8zq/Gb93ro2KxgihYohLqd+2FltVrot347bjuZ3z3AyMouXi8vrAEQxsUQ/78pdF86hE8DI/E070T0LpoPmV+1R48HXO2XsLhLXbwlUXV86s4uHga1jsZPj3XoA+PcHrtOHSpUxZFCuRH8ept0KllAzRs0gljdzp/PGqoxggiYTYRJDcpkI3LGzduKP/NrJH0816/fo24OCPvhmxk0ggS8TGICA1BSGg4IhPf93ExkQiXr4WEIDQiGrExMYiNk6t4RCyio2MQE2tsM9iI2ChEhIUiJDQM4ZHRiAnxwd09kzFuwx28Cjb8sxhBRsRFJzyXIWGIVOZDPGIiwxGqzLMwREZHIyYuDrGJL+/4uBhER0UbvruRUfGIjYpAWGgIQsPCERkdg+g3l7By2mLsOPfE6FElRtDvFY/YyDCEhoQiLCI64T0XH4uo8FCEhsj8DUd0rLz/4hCX+LaJi4lGdEys0TA1LBbREYnXUIZHIiomAu8eH8R0m9W46BZo+G6OjCBKB5NGkIiLSlhfhYYjSlnIxSW+thPeL1Exie+XpOVhbIyyDsvY8jBOWcYmLA8jlJ8Z6XUKCyYsw5FbXkaPwjKCVOJjlGVZSEgoIqLjEpZZSdsGISEIi5BlUZxylk7C8iwecdFRiMro9kZcNCIT/52wiChERwfBZfcSLFmxA1eN3GSBEUTCbCJIr0weQdkpNgLhkTEfN+bUGEHmJzoyElHRxje4GUFaFofI8EhEJ9WzAYwgSovJIyjbxCNK2Wg3tsuAEWRWYqMQFRmJaCMrL0YQCbONoOjoaGWvpXJ0wsDd3dRD2asQFmaW1/2kRlcRlAZGkPYwgiwbI4jSop8IShsjSDsYQSTMNoJOnjyJQYMGoUePHsrGalqjW7duGDNmDB48eKD+UWaNEfQJI0h7GEGWjRFEaWEEfcII0g5GEAmzjSCJmW3btmHt2rXYsGFDmmPNmjXKBm1AQMJHcGkFI+gTRpD2MIIsGyOI0sII+oQRpB2MIBJmG0HyooyIiFBeLOHh4WkOeZw8XmsYQZ8wgrSHEWTZGEGUFkbQJ4wg7WAEkTDbCNKLpAiSjUm9k5WoliJIPttK7xwcHCwygkaOHKmepEtTpkxhBFGqkiJIrs3Vu4MHD2oigmSe6Z2/v7/y0SyMIH1jBGWz8+fPK9c9OTo6qifpjhzJa9GiBdatW6eeZJYR9OrVK/Uk3bl+/bryPJ49e1Y9KdNkRwSNHj1aPUmXZE8pI4hSIxvUDRs25MYcgCNHjijLw7t376onKcwhgsqWLQs7Ozv1JN159+4dZs6cqYQQI0i/GEHZ7PLly6hWrZpyNGjjxo1KAOhxyHVdsvGZM2dO5TowNXOKINnw/+GHH5SF56ZNm1L8LaYY8nzNnTsXixcvVv63erophizA+/Tpo2z02tvbq5+mTGPKCJJTMn/77TcUKlRI+RvlqKT6787qIf+mvAdmzZqFlStXZtv8lWsyZYOpS5cu6d7LzwjSn3379uHHH3/EkiVLsm0dJu+Z2bNnY+nSpdn6fmnZsqWyPndxcVE/TYrsjiBRpEgRdOrUSVl3ZcfyTeaPrLdknS7Luez4HeRvlyNAlSpVUk75NfVdhRlB5oMRlM18fX2xYMECJYJk7/OoUaN0O+RugLLXWVYUauYUQXIu8fDhwzFkyJBsm2fjx4+HlZUVrK2ts+13GDt2rPK6nThxovKcZBVTRpCsDCXoOnbsqJwSp/6bTTHkLpcDBw5Ejhw5lACRea1+jCmG/B6ysbRnz550f9A0I0h/XF1dlZ0hsuzOrmWRvFbz58+PRo0awcbGJsV0UwxZHspyStZVxq6PMocIklDs379/it/fVGPChAnKkcMyZcoorxuZd+rHZPWQf3PAgAHKyI5LERhB5oMRZAY+fPiA58+fKxsQeh9ynq6hvTLmFEFCNvpl5a/+/U015PUiK3wJR/k9sut3kX83q+/IaMoIEvIZZZ6enin+VlMNeU7l9NjcuXPD1tY225YNT548gYeHh3LjmfSS72ME6YucYiWnBqtfP6Ya8n6RqJCjlrJ3X/53di0P5d+WU2qNMYcIkqO68r6W97f69zfFkOWZzKdWrVrh9OnTynOhfoypho+Pj8HtjazGCDIfjCDSBHOLIHMgR2EkECydqSPIHMhpeXKkz9BRUXMmGxaMIMoOderUwY4dO9RfNivmEEHmQOaTHO3W682FGEHmgxFEmsAISklOlZLrkiydHiNIjogWL15cuQmHljCCKLvUqlVLudbDnDGCEsh86tu3r26fB0aQ+WAEkSYwglJiBFkuRhBRxjCCtIMRxAgyF4wg0gRGUEqMIMvFCCLKGEaQdjCCGEHmghFEmsAISokRZLkYQUQZwwjSDkYQI8hcMIJIExhBKTGCLBcjiChjGEHawQhiBJkLRhBpAiMoJUaQ5WIEEWUMI0g7GEGMIHPBCCJNYASlxAiyXIwgooxhBGkHI4gRZC4YQaQJjKCUGEGWixFElDGMIO1gBDGCzAUjiDSBEZQSI8hyMYKIMoYRpB2MIEaQuWAEkSYwglJiBFkuRhBRxjCCtIMRxAgyF4wg0gRGUEqMIMvFCCLKGEaQdjCCGEHmghFEmsAISokRZLkYQUQZwwjSDkYQI8hcMIJIExhBKTGCLBcjiChjGEHawQhiBJkLRhBpAiMoJUaQ5WIEEWUMI0g7GEGMIHPBCCJNYASlxAiyXIwgooxhBGkHI4gRZC4YQaQJjKCUGEGWixFElDGMIO1gBDGCzAUjiDSBEZQSI8hyMYKIMoYRpB2MIEaQuWAEkSYwglJiBFkuRhBRxjCCtIMRxAgyF4wg0gRGUEqMIMvFCCLKGEaQdjCCGEHmghFEmsAISokRZLkYQUQZwwjSDkYQI8hcMIJIExhBKTGCLBcjiChjGEHawQhiBJkLRhBpAiMoJUaQ5WIEEWUMI0g7GEGMIHPBCCJNYASlxAiyXIwgooxhBGkHI4gRZC4YQaQJjKCUGEGWixFElDGMIO1gBDGCzAUjiDSBEZQSI8hyMYKIMoYRpB2MIEaQuWAEkSYwglJiBFkuRhBRxjCCtIMRxAgyF4wg0gRGUEqMIMvFCCLKGEaQdjCCGEHmghFEmsAISokRZLkYQUQZwwjSDkYQI8hcMIJIExhBKTGCLBcjiChjGEHawQhiBJkLRhBpAiMoJUaQ5WIEEWUMI0g7GEGMIHPBCCJNYASlxAiyXIwgooxhBGkHI4gRZC4YQaQJjKCUGEGWixFElDGMIO1gBDGCzAUjiDSBEZQSI8hyMYKIMoYRpB2MIEaQuWAEkSYwglJiBFkuRhBRxjCCtIMRxAgyF4wg0oSsiiBbW1v1JM1gBFmupAi6deuWepJZc3V1VSLo8ePH6klEWYoRpB2MIEaQuWAEkSZkdgS5uLigV69eOHjwoHqSZnTv3h3z5s1Tf9niLF68GD169FB/2aJFRETAyspK2WjSEk9PT1SoUAHu7u7qSURZqk6dOti9e7f6y2bl+fPnqFSpEnx9fdWTdEXmU79+/ZSdJnrECDIfjCDShMyOIDltp1WrVhg+fDiuXbuGM2fOaGacPXsWV69eReXKldG1a1c4ODgof4Oljv79+6NevXoW/3cmH0ePHsX333+PJUuWKPNa/Rowx3HlyhVs3rwZ+fPnx/r162Fvb6+8VtWP4+DIzHHu3DmcP38ehQoVwujRo812OSG/17Zt21C4cGHlNGz1dD2NUaNGoVOnTrrdWcIIMh+MINKEzI6g4OBgDBkyBAULFkTZsmVRpkwZTQ35nUuUKKFscMpKVf63nD5lSSPpb5IY+Ne//qUcGVE/xlKHvC4LFCiAUqVKaeb1Kb9nsWLF8Ne//hVFihRJMZ2DIytHyZIllfeNvPbMcXkoy698+fLhL3/5i/LeNsff0RQjab01YsQIZT2sR4wg88EIIk3I7AgSsbGxygJITj3S4pDfPSgoCIGBgXj37p3FjQ8fPij/nTRpEtq2bav8zerHWPKQFaV6npv7kGvtZIPUyckpxTQOjqwc5r48lN9RjpaWLl0at2/f/rh80+N4//69rjf+GUHmgxFEmpAVEUTaINc9yWl/ZP7c3NyUC7/1eq4/UWoePHigXDPn4eGhnkQ6wggyH4wg0gRGkH7p8e5wWsVbZBMZx7vDkWAEmQ9GEGkCI0i/GEHawQgiMo4RRIIRZD4YQaQJjCD9YgRpByOIyDhGEAlGkPlgBJEmMIL0ixGkHYwgIuMYQSQYQeaDEUSawAjSL0aQdjCCiIxjBJFgBJkPRhBpAiNIvxhB2sEIIjKOEUSCEWQ+GEGkCYwg/WIEaQcjiMg4RhAJRpD5YASRJjCC9IsRpB2MICLjGEEkGEHmgxFEmsAI0i9GkHYwgoiMYwSRYASZD0YQaQIjSL8YQdrBCCIyjhFEghFkPhhBpAmMIP1iBGkHI4jIOEYQCUaQ+WAEkSYwgvSLEaQdjCAi4xhBJBhB5oMRRJrACNIvRpB2MIKIjGMEkWAEmQ9GEGkCI0i/GEHawQgiMo4RRIIRZD4YQaQJjCD9YgRpByOIyDhGEAlGkPlgBJEmMIL0ixGkHYwgIuMYQSQYQeaDEUSawAjSL0aQdjCCiIxjBJFgBJkPRhBpAiNIvxhB2sEIIjKOEUSCEWQ+GEGkCYwg/WIEaQcjiMg4RhAJRpD5YASRJjCC9IsRpB2MICLjGEEkGEHmgxFEmsAI0i9GkHYwgoiMYwSRYASZD0YQaQIjSL8YQdrBCCIyjhFEghFkPhhBpAmMIP1iBGkHI4jIOEYQCUaQ+WAEkSYwgvSLEaQdjCAi4xhBJBhB5oMRRJrACNIvRpB2MIKIjGMEkWAEmQ9GEGkCI0i/GEHawQgiMo4RRIIRZD4YQaQJjCD9YgRpByOIyDhGEAlGkPlgBJEmMIL0ixGkHYwgIuMYQSQYQeaDEUSawAjSL0aQdjCCiIxjBJFgBJkPRhBpAiNIvxhB2sEIIjKOEUSCEWQ+GEGkCYwg/WIEaQcjiMg4RhAJRpD5YASRJjCC9IsRpB2MICLjGEEkGEHmgxFEmsAI0i9GkHYwgoiMYwSRYASZD0YQaQIjSL8YQdrBCCIyjhFEghFkPhhBpAmMIP1iBGkHI4jIOEYQCUaQ+WAEkSYwgvSLEaQdjCAi4xhBJBhB5oMRRJrACNIvRpB2MIKIjGMEkWAEmQ9GEGkCI0i/GEHawQgiMo4RRIIRZD4YQaQJjCD9YgRpByOIyDhGEAlGkPlgBJEmMIL0ixGkHYwgIuMYQSQYQeaDEUSawAjSL0aQdjCCiIxjBJFgBJkPRhBpAiNIvxhB2sEIIjKOEUSCEWQ+GEGkCYwg/WIEaQcjiMg4RhAJRpD5YASRJjCC9IsRpB2MICLjGEEkGEHmgxFEmsAI0i9GkHYwgoiMYwSRYASZD0YQaQIjSL8YQdrBCCIyjhFEghFkPhhBpAmMIP1iBGkHI4jIOEYQCUaQ+dBgBMUj4q03nj+8h9s3r+P6jdtweuSB10HR6gcmE4sQP088vX8XN29cx41bd+Hy1BN+IXHqBwJRQfD3fIT79+/j6Qs/hMSrHyDiERsRALf7Lrj/4BleBcdA+UnxwfB9/gQPnO7g5nVHODomjuvXcfOOC5688EdojPpnUXowgvSLEaQdjCAi4xhBJBhB5kNbERT5Hh7X9mOFTW+0bVAF5ayKonARK5Sv0QJ9Jq2H/bP3iFJ/T1QAnl3cgtlDO6FR9fIoUbQIipeuAOsmXTB45nace+iPsNhkj39+ELOa/aA8Kb/WHYHdLw1UUHwwXp0ZgTJ/+V/88a8lMOyUH8Lk65HHMarsz/jrX/+LHLnzo0CBAgmjUBEUK1EK5er1xNRdt/Ay3EB8UaoYQfrFCNIORhCRcYwgEowg86GdCIr5AKfNQ1CnYD5U6LEQh+/54G1IKELfe+HOgZnoXDoHcpbrh00uH/DxYEuMH+5s6IFKeQuheq8F2HfDHf5BIfgQ4IF7Rxejf428+LVMN8w/64OIpC55ZospDfLi//vqf/Fz5UYYsPsl1BkU/8EDF8eXR5E8P+EPfy2BwcdfJ0RQhB2GFv8G/6o8FccevUdoaGjiCIHfwwOY3iI/vv6hJobvfJwy1ihVjCD9YgRpByOIyDhGEAlGkPnQSATF4e35OWhX6CdYdV2NGyHRCaefJYkPhtupqaiXMxfKDT4CHzmyEx8Fv/PjUSNnTlQcdQQPAtTfE41wt70YbZ0DP1a3wY6Hien03BYT6xVDvmLlUK9NS9Tqtwfeyb8P8Qh8fhoza1dG35418J/vy2PIMd/ECDqK4SW/x39rLsCll599k/J9b09NROOf/oqCXVfDkRWUIYwg/WIEaQcjiMg4RhAJRpD50EYExT+F7bDy+D5HA9icfq+eqogL9sbN/eux88wTyCPiQp5ia/tc+CZfT2x/Eqx+eKI4PNvYCaX/mw8t51/GW/mSmy0m1CyAIs16YtSkAWhYrS92+CT/Fn88PT4VzeuOxs45jZEjR1kMPKqKoBpzYf/CwDVKD9ajX/G/4rtGM3AiUD2RUsMI0i9GkHYwgoiMYwSRYASZD21E0Mv9GFfzv/jGegwOvlZPTCYuGjGxcYhHHEK9dqHHr//BT22348kH9QltyTxZi+4l/olc7Zbgqhyd8bTFBOtcyN9uFjbuW4a+Naugx+5XHx8e7++CIxObosnkY7i9vCVy/VQaA9QRZPBIUBz8jo9Hwx//iWK9N+EuLwvKEEaQfjGCtIMRRGQcI4gEI8h8aCOCnFeid4mvkavNgoRQSVMkAu/MRq1vv0WxUefhE6qensz7Y7Cp/S3+Yz0Otm8A+OzDBOucyNVyCc4/uIDlXauiXK+9SGiaeAS47MW4+k0w47w7nqxri19/KJUygqrPwIknQcoLXRnBAfC6sQ3jGuTGv3M1xrhDL2DgOBGlghGkX4wg7WAEERnHCCLBCDIfmomgXiX+gzxtF8EhXREUgbc3pqLad9+i1Pgr8FEKxYgPJzC+znf4T9Wx2C2lkxhBvzSej+thb3BxXltULNsXuyWQ8AYP9oxC7TrTcc3fD+4bW+OX75NFkNwdrsxP+MtfPr87XMFCRVDcqgwqNxmIOQec8SZC/UtQWhhB+sUI0g5GEJFxjCASjCDzoY0I8rbFmBrf4vu6v+GYcuGOAcoZb0mnvcUi6Nk6tPnpG+TpfQQexi4JEp7b0K/cv/BT89k4K0eMvOR0uJz4pcFMXEUcXp2chvZly6OvXRDw9i5sR9dCtQkOCI0IhPeGVvg5eQRFHMWIUj/g3yX7Y8m+C7hy5UrCuOqA67ec8cTz7ee346Z0YwTpFyNIOxhBRMYxgkgwgsyHNiIo5gG29i2F7/K1wZzrRg6jBLvh4ty2aNxlDs6+lc88dcKyej/gv6XG4pSPke8B4G83DNbf/4SaE47CRxrKPSmCpuF8HBDrfgRzWpVFxeEH4ey0A2NqVcOIc+HKLbu917VIEUFyOty3dZbCMUD9L9HvwQjSL0aQdjCCiIxjBJFgBJkPbUQQouC9fyRq5fgZlcceR/KbtSV5f2812ub4E/5ZdS5uhQDx8eHwsO2BYv/Ni8aLbsLf0BGY0BtY1iYPvincBYscghJuof38UwSdlXaKfoKTs9uhcukmsJk3ErWqjsSJIDno9B4v1hqOIKN3h6MvxgjSL0aQdjCCiIxjBJFgBJkPjUSQHOl5hiPj6qHQDwXRePJe3HiVdHFQGDzOr8bA6jnxTZ7mmHXh9acPIg19gsMTaiHvr+XQaootHF8mTYlBwP2DmNfJCjly10T/TffgnzRJIqj6L8hRfxrOKDdUiILbmXlo8/2f8U3hiqgw9GTCrbTj38FjbQv89F3JzyPI6jt8Y80IymyMIP1iBGkHI4jIOEYQCUaQ+dBOBEmO+D3AscUj0KlRPdSrWwe1a9VCrVq1ULNmXTTpNAZrzrkqnxH0mcD7OLV6LHq1b4kmDeujbu06qN+wCZq3aYcOfSZg2WFn+IYne7zrDowo/S/8s+p4HA9J+FKU20lMK/0VvvpzUfS0e5fwxdi3cFtWB3//f3nR7eBLKL0UfhD98vw//G+ZqTjtzgjKTIwg/WIEaQcjiMg4RhAJRpD50FQEKeKD4Hn7DA5sW4uVS5dgyfK12HboApy8E4vFoBD4OF/EkR3rsXLpUixfvRE7jlyC08vk9ZMo2BP3zhzEwfMueBWT+LWIQHg47MfuQ/Z4lFRZ8ZEIcb2EA/uP44ZPOJSHxvrg9vH92Hf2IV6H8IOAMhMjSL8YQdrBCCIyjhFEghFkPrQXQaRLjCD9YgRpByOIyDhGEAlGkPlgBJEmMIL0ixGkHYwgIuMYQSQYQeaDEUSawAjSL0aQdjCCiIxjBJFgBJkPRhBpwrJly9CqVSv1l0kHli5dip49e6q/TGbI19cXlSpVgo+PoQ8yINI3RhAJRpD5YAQZ4OXlhatXryoLKldXV7Mc8rs5Ojri7NmzOHPmjEUPe3t79O7dGxUrVlT+Xj38zRkd8pzs27cP69ats7jRokULZcNB/XUtj/Xr12PTpk0pvq71MX36dPz666+YOnVqimkcHOqxZs0abN68GQ8fPlSvhi0SI4gEI8h8MIIMOHnyJNq1a4eRI0dixIgRZjfk9xo1apSyx1VOERs0aBD69++Pfv36WeSQv7dChQrImTMnBg4caNF/65eMAQMGKJGYN29e5M+fH3369FEWsFofXbt2RZcuXVCyZEnkypVLORok/1/9OK0NmVfVq1fHv/71L+X/W8LfJEPmT9OmTfGf//wHjRs3/jj/1I/j4Ega8l4oWLCgsl7TA0YQCUaQ+WAEGfD8+XNs2LABq1atwurVq81uyN4zGT/88ANsbGzg4OCAS5cuKfPNEsf169eVjf3KlSvj8uXLFv23fsm4cuUKjh07htq1a2P48OEICQnBmzdvND/8/f3h5+eH3377Da1bt8a7d++U/69+nNZGUFCQsve7UKFCyv+Xv1P9GC0OmT/Xrl1TolXep0nzT/04Do6kERoair59+yrvbz1gBJFgBJkPRpCGSRTs3btX/WWLtHjxYuW0KDJMNiaGDBmi3EDC0sybN085omBJ7OzsYGVlpf6y5skOJNnIkxskEKXH5MmTLe79bQwjiAQjyHwwgjRMrpHZsWOH+ssWiXeHS53shZfT4uROapbGEu8Od+jQIZQoUUL9Zc3j3eEoo+RILyOI9IQRZD4YQRrGCKIkjCBtYQQRJWAEkd4wgswHI0jDGEGUhBGkLYwgogSMINIbRpD5YARpGCOIkjCCtIURRJSAEUR6wwgyH4wgDWMEURJGkLYwgogSMIJIbxhB5oMRpGGMIErCCNIWRhBRAkYQ6Q0jyHwwgjSMEURJGEHawggiSsAIIr1hBJkPRpCGMYIoCSNIWxhBRAkYQaQ3jCDzwQjSMEYQJWEEaQsjiCgBI4j0hhFkPhhBGsYIoiSMIG1hBBElYASR3jCCzAcjSMMYQZSEEaQtjCCiBIwg0htGkPlgBGkYI4iSMIK0hRFElIARRHrDCDIfjCANYwRREkaQtjCCiBIwgkhvGEHmgxGkYYwgSsII0hZGEFECRhDpDSPIfDCCNIwRREkYQdrCCCJKoKcIcnFxUSLo+fPn6kmkI4wg88EI0jA9RdCCBQsYQamw5AiaO3cuI0gjXF1dlQh6/PixehKRQXqMIB4J0rfw8HBlnbZt2zZERUWpJ5MJMYI0TE8RtGTJErRs2VL9ZUpkyRG0cOFCdOvWTf1lTbPUCPLy8kKFChXg7u6unkRkkKkiaO/evWjUqBEaN26cLaNFixaoXLky/vjHP6JatWpo0qRJiseYYshz0KBBAxw4cADR0dHqp4lMpHv37ti9e7f6y2RijCANM0UEyaHaWbNmKQtwiRD5r6lH27ZtkTdvXvztb39Dq1atsu33kJVWv379zHIvXlZEkJ+fH6ZMmYLmzZtny3OeNK9z586Nr7/+WnkdZMfvIaNp06bo378/3rx5o36avkhWRNCxY8fQrl27FL+7qYbMn5o1a+IPf/gDrK2ts/W9Kr+LPB9xcXHqp4nMjCkiSF4HgwcPRqlSpbB8+XIsW7YsW8bKlSuxYcMGrFixIsU0U44qVarAxsYGb9++VT9VFu/hw4fK603Wa+rlhilG69atlW2Jf//73yhatKhyhossK9WPy+ohy2Z5DmQno7+/v/pp0g1GkIaZIoJ8fX2VPbvyJp05cyZmzJiRLUNOh1u8eHGKr5tyDBs2DEWKFMHhw4fNbuMqKyLIwcEBNWrUQKdOnbJ13sv1YIsWLcL06dNTTDPVkHn/7bff4vbt2+qn6YtkdgTFxMRg1KhRykpV/bubasj8mT17NpYuXar8Vz3dlKNMmTIYO3Ys3r9/r36qyMyYIoLk/TFixAiMHz9ePUmXZJk6depUZf2uN/v27cNf/vKXbF2fyPpU1mnz5s3LtnWr/Ltt2rRRgszR0VH9NOkGI0jDTBFBHh4eyt6CK1euqCfpTkREBHr16gVbW1tlpWpOsiKCzpw5oxz9kPPY9U7O4a5atSquX7+unvRFMjuC5LU5btw4ZVDCzTQmT56M169fqyeRmTFVBI0cORLDhw9XT9IlCSAZenx/yGmRsmOXoMSPHCG1t7dXT9INRpCGmSKC5AUih2vl1BK9e/nypbKy3r9/vy4i6Ny5c+jduzcuX76snqQ7Pj4+qFSpEm7cuKGe9EUyO4LktFXZyy1HrAiYNGmSEkGZdfoiZR1GkOnpOYJkJ6YcKSbg1KlTynbDhQsX1JN0gxGkYYwg02IE6RcjSFsYQdphiREU+fo+zq6bhnGTl2DHBW/EIgYf3M5h44yJGDfOBuOmzMKKY9dxctUsTJs0DTOmTcRvvy3G4Qd+CFX/sCzACGIECUYQI0jTLC+C4vH+8XnsXTYT05cegIObrA6C4X5tP1bOm5lwzcG6Xdh35iqOLp+F2XMXYNH8WZi/cj9uv41DvPrHZTJGUNYKenYFB1fNxPRFe3DpWRgQ6Y3bh1di/qzpmD59NlZvs8WZa0exctZszF2wCPNnzceKPbcQFZPVc54RpBYd4IqrOxdi5tzV2HPJC9GIRai3A/YsmY0Z06dj+txFWHf6Ns5tWYZF8j5dMAezZq7E0ftvEKL+YVmAEaQdlhdBfrh9ZCF61muJrh3bo/9vK3HS7RWenLBBzdIt0LvfAAwYaYOZu89ix4Qe6FSzAH4qUAV1Gg/DhhsvEaz+cVmAEWSiCIoNge/dg1gzbw4WbTyOhx9iEBXogmPrFmLmTFmvzcLKE4/h5ngE25fPxvyFCzB3ziws3HsNria4ZwUjiBGkaRYXQTGPsGfGcHSo2wRtWrbFyLUX8Py1M/bP6oKKFVoqt0nuPXEBFm22xbJuVVHRKhd+LGiNtn3m4PjLGEaQliMo9hkOLRyNjnUaoW3LNhi5zh7XLxzAit4VUbZFN3Tr1gfjZi/ElgPL0NO6Ekrl+gH5q7VGz2lHERGV9TepYAQlF4j7p5ahd51GaNOyFXqNXYoT7q/hfm4CalnVR8cu3dCt3xBM2HYSW8Z2RfuqefBD7rKoUrM3ll30wDv1j8sCjCDtsLwIegWXa8exdfsVPLp+BPu3rMQuJ2+4np+Dzh2mYf2mLdi66yCuv0x8uMc6TNxwH34m/MxMRpBpIijM+w52DmmEFm1bolX3wZi42RG+N+ahVZWGaNmuC7p164VRm2/A6dBiTOhZAwVz5EHx0lXQdvp+3Ex6fWQhRhAjSNMsLoKiH+DwroM4fNoZT8+uwKqdx+Dw/B6OrZuEPkNXKhc0Hj53A+4R8uDXeH5pFabuCVT/lCzDCMpCsY9xfN9B7Dt6D64X1mOj7REcOHAYu6b3wYDle7F37yGcdnBLOFXkvQccV07BdhOuvxlByfnigeMxbNh8BU9un8CRLYux+ZYP3K8sQPeus7F15x7YHjiGWy9jEx7uuR6T1t6Flyl2cSdiBGmHeURQPKKCX+Cm3V7s3LIea9eswZo1a7Fuw1bsOXoZ919noFAi3sDL+Rz2H7DD0SO22HvwKM47P8Oz0xNRr3RdtG7bDu17DsOGu5GIjo9FpNMSjF7qANfXie+XDInFh+fXcXr/Nmxcuwbrttji1E23NHc0MIJME0FB3o9wZu1anH1wD9fO78CsxSfhc2MZBvSegZUbdmHv3gO48jwICa8uf+ydux5nbnqrf0yWYQQxgjTNPCIoBh98HuLqkUPYt3s7tm+XsQO7bI/gzPUneBWufnwqgl/A6cpx7DtwGPv3bsaWozfh5nUTdgu6o2KZOsrv0XnsUpyUu3pGu+Le8YUYt+kFvmTVgfhgvLx/BScP7FZ+3z1HzuOu54dUfxYjSC0Wwa+f4JrdYexPPu/3HsIph4fwycjJ7aGeeOBwEvv2H8Z+2y3YeeoWrh/fgzX9K6NknWZo1qwzhs89Di+Z9V4uOLvABmufyUlYXyD0FR5ePYmDyu+8B4fO3YFbYOrzU/sRFI+YsFdwsT+Gw7Y7sUOZV9uxY5ctDp+5jkdvMrCRF/UWvo8u4dCBQzh0YA/27D8CexcPeJyfigYlq6NRk6Zo3r4PljmGICIeiHuwDGOWXMLDpCjKoBAvJ1w5cQC7d2zHjr12sL/rgXdpHPZlBGmHeURQLPwfrEGbr7/CX3OWRsUqVVG1ajVUq1Yd1avXQJN+C3Hk0XtEpvG6UwTdg/32aehnsw57dy7CrPmzMWuHA56cnYH2nRfA9tARHLE7jlN3fBAdHYbwO/MwaN4lPH6VwfdHuC+cDy3G6C4t0bhuTVSvWgVVq9VAvRbdMHb9JXimsu5lBKUSQfExCHx6FeeO7seenTsS1ms7dmL3geO4cM8LH9J94kEMQt954Maxgzh08CD27z8A2/0X4Xd7ITpUq4U6DZqgWbO2mHHCC2+VWe+GzVOX4dD5R1D282ZU9Bu43jwLO9td2L59Nw6cuoaHb6LUj/oMI4gRpGnmEUEf4LimO0p+9Sf8t0A5lC9fXhkVKlRElbqt0G/+MTx6n541h2xpHsTiObMwcdFeHN07HSPmbIfd2eOwWz8FfUdtxenTp3HK/hruvQgFIp/g9pFZGL7GDRm9JCQu4CnOrZ+C/m0boXbViihXvjwqVq2Bpr0mY+OlFwhSf0MiRpBaCO7tGoIK/9//4t/5yn6a9xUrokrt5ug58yDuvU3n8+R7DKsWzIDN3D04um82xi/ZilWzVmDXrP4Ysvk0Tp8+hXNX78AtCIjyuIcTM4dh+ZMopPOnJ4pD4PPz2DJjANo3qo3qleT1WhFVajRB9/Hrccbtg/obPtJ+BMXh3bOt6PL9H/DXH4uiVNmk92klVK5WE00HLIHdo3eJeyTTEHwfl/dMR78JW3D44BosWToLUzY54PnFOejUfQkOHjuF06fP4rzTK0RGRyLaeQEGz7WHs1fG5pbEluuZ9Zjcuw0a166GShXKoXzFaqjTogfGb7ya6kYeI0g7zCOCYuDntBrdChdE+y1v8Gk7NwgeFxajR8kcKNp5LS77pusdgtDn9ljbvw7Kl6+OtuN24O6HEPheX4le1pWU2zNXqFwbLedcQXB4JOJeHMa6gw/hE5jurWsgOhAuO4ajQZFCqDF0Hc57JO5xCnPF2QVdUDFvGfTa6YrgOMMrR0ZQKhEU/QEXRhfFf/7+DfIUK524XquASpUqo0q9bpi47Tq8Q9Izr8Lx8tFJzOk7Fmv37sWWTeswffAceF+ZjV59FmLr3uPKeu30TQ98CJef9wxrx82H7RkXhKl/VKriEP7SEfvnD0HXlvVRo3IFlCtXAVVqNkLrIYth9/Adogy/DBhBjCBtM5cIurq8E2pYNca0ZNuH8e+f4MyirqiStyiaLr6NQCML48/FwPP0UgxrWAqlSjXAkPWO8It+BYd1g1G7bGmULl0apWp2xYT9L4H4l3jmuBtrjvkiNj0/OkmYO46Ob4RSRauh01w73E/YBYMI9+OY36YMilXqgZXOhi/dZgSpheDu1v6oW7Qmxl1K9uVgN1xe3Rc18xREvVlX4RudnhkUj5cX18KmaRmUKlUHA9ZexTPX69gzti7KlpF5XwrV24/BDncg3s8Nt3avxhHvjB0JCvc+hukty6BIhQ6YdsAZftHy1Uh4nVuEbpWLoUy7Zbhp5JQt7UdQLAKfbkLvInnRYo37pztQxQbB3X4xepT6BUU7rsL5l+ncyHO/gLX9aqJUqQpoMmwtHPxD4HdrJXpUKaO8T0uXrYoGk8/hbUgU4HkQq2zvwd0vA3MrJgiuhyaiZfECqNh7CY4/DoQyu0JccW5hV1TKWwY9dzzBeyNvfkaQdkgEyfWeWSk+Pl75MOFUI8h5DboXLoC26z0Q8tnLKh6+e3uhVJ7aGHPkiUluXJC6OITcWI7+VQqhwpDD8FRPDnXFsVEV8UuVmbj6NsrgtbISQNOmTYO/v796ksVLM4Ki3uHiuHLIVXsSzrz4dCQl+s0d7BpdDfny1cOoXY8RauiJVYv0wwPbsWhVuRRK1+qKqYcfIfDpboxtUjVhOVm6FCoN2YOnb2R74jWOb9qHy3c80rczShGHqNcO2NC3PPKXaI0JO27ghbL5Eg3/Ozswrm5eFGi+EOe8IgyuKxlBjCBNkwjatWuX+suZysvLS/mw1NQiyGFFZ9S0aowpDqpJIU9xbHRV5C45GAdeRRpcGJtWFHx2dkelYtXRZ5MT1Pv9Yx5uwYi6ZVBp4BEEqKaJpAg6ePAg4uLSsyfIdCSCBg4cqHwCdWY5f/48+vTpk3oEbRuAekVrYux5VRSGe+LC5FrIXbQ3driHGlwAm1TMKxwYWBUlKvbE8uvqOR+L5/tGo0np8ui21/BGQVIE3bp1Sz3pi2R2BEVHR2PChAlpRNBm9CmaFy1WuuL9ZzMkHq/390XZvDUx3PZ+iveF6cUj3HkzRtcqiJI9d+Kp+q0W6oZTYyvhl8rTcOF1hMHlikTQlClTdLmRpzU2NjZo166dskzNqiE7CUaMGJGuCGqzzh3B6gWW73b0LFoATWbYwzX1M4yyXvwrnJjSHOWt2mHJY/VEEQi3/YNglbMlVj8NSdh5oCIRJO+PV69eKYGofr6yasTGqp9Y05OdmGlG0PjyyF3rN5x8rjqnO+QCZjQojLJtF+L0G0NLHhOL8sKVZW1QOF8TzL4epFoWxiPcaQEa5SqJvjtc8Ea9HE2MINluuHQp+V5MfWEEaVi5cuWU81WzUnqOBCVEUCNMvqJ+l32A+/ERqJazIsaee/9l57lmpuhbmFe/CCp0WgZ7Q9tGsbexdWB9lKwxCZfUf0piBHXt2tVsjwRJsMycOVM96Yul60iQEkE1MOacessgDK8u/oZav5TG0KNvsn3vacz9hWhZsgJazDwDuaRMLe7BDoxtYoVyIy8YfJ1m9pEgCelixYqpv/zF0nckKCGCmq94gkD1lpH/HvQtWRANJ57Ao/Tvhswa8f64sKADKhVtgll3DW1oBMHn6DCUzNEMS+8bPoVPjgLxSJA2SLDKXnHZQ79v3z7lv5k5ZHktOwvr1aunhJBhaURQ5CmMKZ0DNYYfhVN2L8yCz2NRhxqwarwI99TTFO/gcWQ4yuRoiEUuHwxG0Lhx49CmTRusWbNGWRapn7OsGnJzowMHDsDDw0P9K5mM/B7pi6AJOO6qntnhuDSpDqyqdsfiq+ppphf6cD8m1s6NkkPPwNAtouIjbmFu1RywHn8SDwyc5y+XGEgE8UgQI0iT5EjQkCFDlPl18uRJnDhxIlOH7CXYtGmTcg7zl0VQBF7emIlmOQqgx+4AhBnanjGl5yvQokgVtF9gb3BDGHDBruGNUbryaJwycL2BRJAEoaxA7OzslOdH/ZwZGocPH4azszOiotShkHmCg4OVQJOjdleuXEnxO2RkyGtJFo4zZsxA06ZNU1kepBZBUQh4sBhtcuZBh43eeKfeqDAxn82tUapyW0w+ZnjO4+leTGpZCiUHHDd4TZjsMS1ZsiQWLFigzPf0vt+OHj2Kx48fK3tBk5P306+//orjx4+n+3VkbMi8ktdYy5YtleWBYWlEUKw9fquYE9X62+Lme9U0Uwt1wJqetVCs9kxcN7jMCMarMzao8HNdzLkZAANvVSUIO3bsqJwufPbs2RTPWUaHzCfZUAgKMvTqoN9DntfWrVujYcOGyvIrs0eLFi3QpEkT/PDDD19+JCjEDsNK5kStMSdwPyM3fMkKfocxtXkNlO64HT7qaSLmFe4sboocuXtit094suubPhk0aBAKFCiAOnXqKM+P+jnLqtGqVSt8/fXXylHrzODq6qosP2U5q37PGhqybpTTImUHslGpRhDwYFlLlCjfFFOMrUtMJhpup6ehdb5i6Hcs5e8p4iPvY1mdX1BxxCE4GagkWQ/Je092nsqZH+rn60uGLCtlW0mOMGoBI0jD5MNDq1evrizIZC9XVoyqVavi22+/VV7YhqUWQWHwuToVDXMURu/9b7M/gu5MRc1CDdFv423DFx4GnsXCtpVQqMFCOBn4XeVogFwkKXvw0/ucy4pdNnblf0sIZaVly5ahbNmyqF+/forfI6NDfoZs9BctWlQ5ImRYahEUiYB789H8l3zost0n2yPo4fw6KFGvFxZfNTjn8cFhKXpUKYhq0+8a3Gjw9fVF7ty5UapUqRTPlbHRqFEj/Pzzz8qpPm/ffv7Jdw8fPlSmp/d1lNqQeVW7dm1lI2/w4MGf/TufpBFBkacxtvyvsB58ALcNr09N5+1JzG9fE8VabsQL9TQRF4BHa9sgZ85O2Pg8yODNMSQG8+TJg2rVqv3u94N8f40aNZTloGxwUeaSjSU5khkWFpZlQ+JVXhNfHEGPl6J5/uJot+wavAwtIEwp5CIWd6qNUk0Ww0X5QjyiI0Lw/l3CaccxXmcwq94vyN1uC56Eqv+QBHIqnFyLJUdk1M9VVo7w8HB06tRJuQ4lM8hOOlm/1qpVK13vc1nm5s2bVzmqb1QaEeS0qCmKl2+J6Sf91JNMLBQPDo9Gg5wVMfWOelqCuLd2GFzoZ9SfcRHPDOwtkiNzsp63srJCgwYNUjxfXzJkOSmnW4aEGL622twwgjRMjizIwv39+/dZNlxcXJQN+S87EhSIJ7v7oHSu2ph+PRjqzWSTc1uJFkVqoPPSy0jYJI1DRGgIQsMTVhR+pyajZcmiqDPd0eApUbJ3Q/Yub926FQEBASmeK0Pjw4cP2LNnD3r27KnsaclKmf16kKMLcsGy8fOFU4ugYHjaDUX5nNUw/ry/4eg0Ie9NrVGqegdMP5V4tVdcJMJCQxGmbEH749KC1iiTvyZsLhhYUyQGsBwRlSBUP0/Ghsz7RYsWKUfo1Kd/yJGh0NDQFN/zpcPPz0851eeLT4dzX4sORYqhxWx7uBnebjId5UhQPZSoO+/j6T6xUeEICU7Yqx3ndw3Lm/2KX5qtwr33hhIImDhxIsaOHavsKVY/V18y5L0vISSnVmllDyd9bvTo0emIoIJot8nn83VVdCBuz22AgkU7YuEVb4Onl5mWHy7M74hqVk0wzUHWqzF4eWsPZg2eht3XbuL0wpYonscaY8/6GTxVVMhNEWQnqqzHTE1OsZYjUZlB4mf58uUp3q+pjc2bNys7C41KNYLe4uiIqihhPRBr7xh7dk0lSjkS1Da/FQafTfxd5HOnQoIQqiwWI+GzryeK/lQdY4+7GbzWU85okPkhR9LUz9OXDlkHyanIsk7SAkYQpUpW/nK4PM0IKtkE065/PiXW9zq29CiJPDWm4+I7wxsrJhV7B0ualkTlDvNwzEdWZe/hsGkeps3cBcdH57CqSykUrNQfm58b3gpMuiZI4iAj5HQcOe/W3t5ePcmsSfz07ds37WuCitXCONUiIy7AGbYDyiJXpfE44Wv44nVTinu4DO3LV0LzSUfwQu4XGuyI3UumY8qWa3h0eQ36lS+IMl034pGRl6lEUOXKlXH37l31pFTJCldWMuoIymyyYS4b/mlHUD60XO2Gz/bRxYXi0fKWKFq4Baaddje64WQy8f64vLQbqhdviCnXwhGDWLxxPoS5Q2dg701nXF3TGaV/LYdBR7yM3qFJVsKyoSfXymUGufFE48aNlesZGEHak75bZK9C57w50XD+HXi8CVAC4fULZ1zYPBKNihRBg8kn8ChYvaMve8S4HcLs1sWQr+ogrL7iime392FOByt888+v8f33hdB04XX4GVmWiey8RbbsEMysCJIjDxm9Q65cA5Wua4JqT8Jpj+RLw3hEe+/BkKpFULXvRlw3gwMdYU+OYFrD/Cg96CheyodYhfvi6rLBGLfxIpzvHYRNjVwo2G4NHH2jDa6D5ci2zIurV6+qJ32xpGUvI4gsQnpujHB1eUdUK1wbY059UK5NCQ7+AL9nl7Hzt5YoX7gq+u9NdkvebBWLt6fHo3npoqjSewXOuL+G6/E56F49H/7z33/jZ6sWGGfnY3Qj8EtvkS3nycrh/6w+EpTZ0nNjhDtb+6FW/koYfOTtx3nv73YN+2d2QKWC5dF9y2PVnciySVwgLs1oiXKFK6HzwjN49voZzi7phdoF/43//udnFK0/Frbuxu9g+KU3Rli/fj169eqV5RGUvhsjbELPAr+gwbzb8AyUeRWMd69dcX3Pb2hZtACsR+3D3XfmsJEXj2h3O8xrWxR5qgzGGgd3eN4/jiXdyuKnb77Hzz/kRd3p5+Ft6HBtosy+RbYctZMj4owgbUo7gmLx9uk29M7zL/z7h1+RO09e5M2bDwWKlEKleu0xZPkpPHobY3T5YHrRCHlxBbtn9kKz6qVQOHcu5C9eGqWrVEO54nUx5tDzz3d0qFhSBG3ZskX95VSl58YIF2xKI0eVEbC9+yphvfYhAC8fnMTSHuVRsGxXzDvjY/A0XJOL9YfTzkGomNsKbWYdxT13N9zcMRx18/6EX378Gt+UG4rtzoFGP0YkK26RLadZMoLIYqQdQUG4tWUQqvzl7/gmRz7kz58f+fMXQhGrCqjVehBm2t5FGh9abFoxQXhxeQtm9W+G6mWKIH+uXChYrgKKFiqO8vWHYNMDw6dDCUaQWijuH7BBrb//Df/5Ofm8L48aLfpi8o4beJnKhqqpxQZ7wnHnbAxuaY1yRfMj968FUaZ8URQtUR41em/AvVS2GrQfQXH44L4bffP+E19/9yvy5JN5VQAFi5ZCxVot0WfOQdzxNfxZEtkjCsHul7BzWg80sy6DonlzIV+RYihWvhKsClbHsH1PDd7AIgkjiJJLO4KAuOhg+Hm64dmTh3jw4IEyHj56iueer/EuwjzneWyoP7zdnuDRw8dw9fCB75tncLRdiJFjtuFhiPF3MyMolQiKCcKViRWR67/f4Kdf8yas1woWRomyVVG/02/YcMENH7L/nMiP4iJew+XoYgzvUB+VSxRA3rwFULBYZVQr/iusuq3GxZfGN8AYQYwgSkPaERSHiA+v4fHgPpzu3FI+R+XWrdu44/QArl7+SGU5nI2iEfLGA4+d7uDWHWc8dveC1/Pz2DRzCqauOJ94vVBKjCC1OEQG++HFw/twvpts3t97gKeefghK/1NkOjEh8H/xGM53buGO02O4eXrB7coWzJ82BYtOG5vzlhBBspEXhFfPHuH+vduJ8+oWbt9xwgNXL/iFmsMRoJRig33h/sgJd27fhfNjN3j6PIWj7QIMG7kZTh+Mr9wZQZRceiLIYkQHwdcnAOHGdv8zglKPoPg4hPl54NlDZ9y9/Wm9ds/lMdxeBWX/tc0GheOttyse3Etc/3q8hNeDU1g9fAiWXvJE4mfCp8AIYgRRGtKOIEsRj9CA1/D2fmt0IccIslShePfGG14Bxua8ZUSQxYh6By83XwTHGA83RhAlp6sISgdGUCoRZDHiEeLjjpfvwyGXwRrCCGIEURr0E0FpYwTpFyNIWxhBlBwj6HOMID1EUNoYQYwgSgMj6BNGkH4xgrSFEUTJMYI+xwhiBAlGECOI0sAI+oQRpF+MIG1hBFFyjKDPMYIYQYIRxAiiNDCCPmEE6RcjSFsYQZQcI+hzjCBGkGAEMYIoDYygTxhB+sUI0hZGECXHCPocI4gRJBhBjCBKAyPoE0aQfjGCtIURRMkxgj7HCGIECUYQI4jSwAj6hBGkX4wgbWEEUXKMoM8xghhBghHECKI0MII+YQTpFyNIWxhBlBwj6HOMIEaQYAQxgigNjKBPGEH6xQjSFkYQJccI+hwjiBEkGEGMIEoDI+gTRpB+MYK0hRFEyTGCPscIYgQJRhAjiNLACPpEjxHUp08fRhAjSHMYQZScLK9HjBgBGxsb9SRdYgQxggQjiBFEaZAXSPPmzTW3AZ8V9BhBffv2xa1bt9STdEcrETRmzBj1JF1iBFFysrweOnQoatWqhfv376sn646eI2jv3r0oX768+su6xAhiBFEa3NzcYG1trbyoAwMD1ZN1RW8RdPToUWWjYcmSJQgLC1NP1hVzj6CIiAjldJ/69evj2bNn6sm6wwii5KKjo5X3xzfffKO8H+V9qef3iZ4j6ODBg/j111/h6OiI2NhY9WRdYQQxgigNsqKQjb+iRYsqGxX29vYIDg5WP0wX9BZBhw4dQvHixVGhQgXMmTMHDg4OiIqKUj9MF8w9gsLDwzFq1ChlI09ea7t374aXl5f6YbrBCKLkZHktR0o7deqE5cuXKzt35H25a9cuXb5P9BxBx48fx5/+9Ce0aNECS5cuhZOTk/ohusEIYgRRGuQF0qZNG0ycOBH9+/dXVh4zZsxQ9qLIhpee6C2CJHjl95aVpfzddevWxeLFi3Hnzp0M/f2WwNwjSE6HkxVP27ZtMXfuXFSvXh0DBw7EkSNH4Ovrq364xWMEUXJJN0aQHQVCNv7lNVK1alVlg9zOzi5bgiC76DmC5EhQ4cKFlR1FjRo1UrZvZDn95MkT9UMtHiOIEURpSLoxwsmTJ5X/L6+NVq1aoWbNmli0aBGcnZ11c3RAbxGUdHc4CV5x+PBhZUNQTrlat24dHj16hLi4OPW3WSQtRJDs6ZaLv4Wnp6dyfZD8zrLxJ0EbEBCg/jaLxQii5IzdHU7Wb0nvEwkkWUbr4X2i5wiSGyOULVtW+d+y3JRltJzy37FjR+XIYFYvq80JI4gRRGlIiiA5hJxEViiyYd+4cWPUrl1b2SB2dXXNUBhokV4j6MqVKx+/JtcG7dy5U5nvMv/lf8trxNI3DLUSQeq7w8nezSFDhiinNE6YMEH5/T98+PDZYywRI4jUJHbUEZREdugMHjxYeZ/IRpzcDCYkJET9MIuh9whS3x1OrneWa18rV66M7t27K9fDvnr16rPHWCJGECOI0iAbf3J3OEO3yJYN4n379imnScnYvn07vL29LXYjQW8RJAtGY7fIfvfunRK/sgdNjgzKKQbZsUI1FXOPIDkiJysfdQQlTbt7965ypz/ZyJs+fbpyhyxLPp2VEWSZJExk2ZOR8f79e/j7+yunhxqLICEXyd++fRv9+vVTlmsSCQ8ePFBuqmBpLCWC5KyEHTt2qL+cKnkPqyNIyPtaTh2W61/l7nGyA1COoL99+1b9UIvBCGIEmQVZyMrC3RzHw4cPlfNmDUWQkAWHrGi2bt2qhJBcbCgLGVnpWBpziSD5t2WjTD2vMnvI3jDZK2YogoRsXMtGppwWWa1aNfTo0UM5ehQUFKR+qOaZOoLkbm/q+ZHakBW1nM5jKIKSyNGiq1evolu3bqhRowbmz5+P58+fW+RGHiPIsshzLjfpmTJlijLkutT0jlmzZikb/KVLl/54umhq5L23bds2/P3vf1d2GljiEQFLiaA6depg1apVKZaHxoa8j2VbxVAEJZH1qyyv5XVWsWJF5Xe9fv268r2WhhHECMp2snG1YcMG5WLmhQsXYsGCBWYz5PeRU2zkznDJT4czRiJBTin461//apGfV2IOESR7K+Xfnz17dpa+XuQGCHIUSDaW07OAlNOu5Jzqn3/+WTlFztKYKoJkY09OLZXnX/ZIpmceS4TKY6tUqaKc+pYWOYIre0///e9/o1y5chZ5dyxGkGWRMJE7eeXPnx/jxo1Tln/q2DE2kiJINnzTiiA5VTTpVG+5CZDs/MvIsl4rLCWC5PQ1CaGk5aB62ageEkxyIwSJ27TIuvbmzZuwsrJSlpWyg8/SMIIYQdlOTiH78ccflT24cs6+RIe5DPl95I5wsuJJK4LkaNDmzZuVhYucHiWn31gac4gg2WCVQ/VydE5WYup5lllDFmTt2rVTNqxT+73laJCsSGVjXW6nLacQWOJGtakiSI7WyIabrHjl9B3ZmFfPG/WQeSU7HWRPt+yESI1sTMqtzmVDQAJIlj/yb1oaRpBlkb34EkFySqdsXEnIZ2TI0WnZQWDsdDh5D8g6S3b8yPt8zZo1ynUiljqvLSWCmjZtqpy6aGNjoywH1ctG9ZCNczmFTo7wpCbpaJBsAxUpUgRjx47VzEZ9RjCCGEHZTjaS5Dad8oKRvVDmNuTaAVn5GzsdTjaqzpw5oyyMZI+M3EFMvs8SmUMEyelL8jzLxZ2yYlfPr8wccnvl1E6Hkw1DuSZMbpIgp0Fa8mdImSqCZINNViKyt1vu8KaeJ8aGLD9kL7ex0+Hk9SqnE8kdsiR+5Miz/E0ZeR1rCSPIskgErVixQnn9yjrnS4wePTpFBMlOHFmuSxDIHcPkfSc3SbDEHQPJWUoEdejQQdkBJ6cDq5eJhoasM2VnbdLd4QyRHboSwbJDV6L43r17Fnv9JCOIEZTtNm7cqKxczZWsIGQDVx1BsvKQlYXs+ZeNQzl9R15MlnzLZHOIIDc3NyU4TXFoXpYDsudVHUFymoDEQPv27ZWAl9M5LfG8+eRMGUFyLvq8efMydA66vO/ks7wMRZDs0Zb3p6zUZeND/gbZqLRkjCDLkhRB8vr+ktdu0i2yk58OJ/NUjoTKKb9yKq8sU+UmCnpgSRG0du1a9ZdTJTfxMXRNkHzUh6yrGzRooNwR11KvbU6OEcQIynYSQXJ41lw/a8fQLbJlr4ucky0bhbJSkvNmZePN0plLBDVp0kRZeGU1Q7fIllPdZGNCNqhlQ1OOFJrrazczmTqC5DqGjGyQGbpFttzwQD4EUlbqsiPj0KFDmlkx/V6MIMuSWRGU9GGpSaeEynU/cotleX/riSVFkFznk5H1saFbZMtdAOWoj9zgR26VLWdc6OF9zghiBGU7rURQ0oelygJEVhytW7dWTpfSygs9M+gxgmTFkPRhqXKKgKwk5BS5s2fPZmgjXeu0EkGyoSfkQ4zlLnDVq1fH8uXLlZW6njCCLEtmRJBc3yE7A2QjTd7Lcu2d3P00I8tyS6H3CEo6HU5OfZPXgVwjJKdLyvJdDzt0kzCCGEHZTgsRJHvM5FQbOSogt8GWhY7cwUpv9BZBco2P/N6yMSkrG7kZg9w6Vq5V0RstRJCseORmFvK9ctckiSL5fb/0GgotYwRZlt8bQXJUVE6F+9e//oWhQ4da7K3800vPESSnw8kdb3fv3q1sz3Tt2lW5llkrG+2ZiRHECMp25h5BcjG13CGsQIECysaZHBWwxM8VSQ+9RZAc6StZsqRy6oB8poxcIKpX5h5BEjpyh7ivv/5aOXonp74FBASoH6YbjCDL8nsjSJbXcnc4uZ5SPtBb7/QcQXJq/5/+9Cfl/SzfK9s4esUIYgRlO3OPINnollNqZIEph471TG8RJDfDkNuPykX1ejpFwBBzjyA5EiR7uuvVq6frlXoSRpBlyYwIkveH3OqY9B1BciQoV65cyg5dS76RU3owghhB2c7cI0heILL3TE6N0ju9RZBc9yMrrIxu+FsiLUSQ3N5XzmsnRpClyYwIkuvl1LfI1is9R9DevXuVz9ojRpBgBGUzLURQ8+bNU9wiW4/0FkFJN0ZIfnc4vdJCBKnvDqdnjCDLwgjKXHqOIEN3h9MrRhAjKNtpIYLk7nCMIH1GkNwMQ/05QXrECNIWRpBlYQRlLkYQI0gwghhB2Y4RpB2MIP1iBGkLI8iyMIIyFyOIESQYQYygbMcI0g5GkH4xgrSFEWRZGEGZixHECBKMIEZQtmMEaQcjSL8YQdrCCLIsjKDMxQhiBAlGECMo2zGCtIMRpF+MIG1hBFkWRlDmYgQxggQjiBGU7RhB2sEI0i9GkLYwgiwLIyhzMYIYQYIRxAjKdowg7WAE6RcjSFsYQZaFEQT4+vri9OnTyka8vA7TGvv27YOdnR0CAgLUP4oRxAhSMIIYQdmOEZT1nj17pnzw58mTJ5U3fVpD/tabN2+mWLAygrTn/v37ynOV3nl//Phx3LlzR/1jGEEmIBtr8plU8n5RzxdDQ+apvEbfvn2r/lGMIAvDCALu3bun/P3y4eWtW7dOc8jn+/Xo0QPPnz9X/yhGkIYjKDw8HM7OzhlaTsp/ZdshNjb2s58lX2cEMYKyFSMo68knRHfu3Fn5O1q1apXmaNCgAaZPn46IiIjPfg4jSHtWr16tzNMWLVqkmM/q0bJlS2UDY8GCBeofwwgyAQlW2UiVeaCeN4aGbOTJ+/Hx48fqH8UIsjCMICjbCPJ69vT0hJeXV8LwfglfvwAEvv+AoKAgBH14j8AAP/j6eCmPk6NHhl6vjCDtRpDsLFq6dKmynJR1lnq5qB6y7pPHHTlyJMV2JiOIEZTtGEFZLzAwEK6urnj06JGywSTjietzuL/wgs/LV3j16hVevfSGp/tzuD55rDzO0MqBEaQ9siB+8uRJsnn/BK7P3PHCywcvZb6/eoWX3p7wcHPFk0eP8PTpU/j7+6t/DCPIBGSngyxvkr9PHz9xxXN3T3j5vEx4n756CW9PDzx3faJMl73cht6LjCDLwggyLvKNK+5eOYdTx4/hxNnLuPPsDcLVD1JhBGk3guRojsy3z5aTj5/g6TM3eHh6f9ymeenjhRduz/Ak8TGyDFNjBDGCsh0jKLtE4b3XI9y5dgnnz1/A5RsucH8bqX7QZxhBFiLmPXwe34Xj5Qs4f/4yrju7wy+NrQZGUPaJDnyBR7ev4fKF87hw5SZc3P3x+THalBhBloURZEDUO7hd2IZZA9qhkXUFlLYqAasylVG33SDM3u8Ev2j1N3zCCNJuBBkXDN9nzrh59SIuXLiEa3efwidY/ZjPMYIYQdmOEZQNgl/h9oGlGNu1MazLlUCRIkVhVaEmWg9bjAP3jG9gMYK0L/T1XdittEGPpjVQwaoIihQtgXLWrTBo7j7cfGO8hBhB2SA2BC9vHsCSkZ3R1LocrIoVQVGriqjTbgjmHboP/1Q28hhBloURpBIbgmeHJqF1iQKo0GMh7B74ISweiPa/h0NTW6FM/ioYdsQTYXHqb0zACLKsCIoOfITzmyaif5u6qFK6OIoUKYGy1Zuiy29bcflFKD6/EugTRhAjKNsxgkws6jUuzG6LCkXLo8Vvu+Do9QFRMZEIcNmDyU1KokSNQdjqaviIECNI26IDLmFJl0ooUqoZxmxxgPv7KMREv8WjQ1PRtlwJVOq5CfeNdBAjyMTiwuF1Zh66lsmPUu1nYO8tL7yPjEbY6zs4NK0NyuargqGHPBBsZCOPEWRZGEHJxSPCaSNG1CqM0r224ZF6Z0CgC2wHlsWvtRbg5rtoGHq1MoIsJYLiERN4D3tHWaNg4QYYusYeD16HIiriHTwurcHganlQrNNaOPhGwdCikhHECMp2jCBTioX/oUGoUaISOi+7gtexn68ewm6uwoBaZVB95CkY2vxkBGlYXABOjqmNkmU7YPZZX8R8NuvD4bJtMOqXqoJ+h98ln/ARI8i0oh7vwaRGRVC8/SrcDo39fEPu3UMcGCwbefPg4BdpcCOPEWRZNBdB8dEIC/CE6+MneO7tj+DoWMREBON9cFKUxCMu6gNeezzDkyeP8fipO16+C1ctl4yI98O52a1RsXgLzL6rnigC8WxPPxT7tQ3WPQuBoTUVI8hCIijmFW6u74aSeWtj3BlfRHxWOlF45zAVtXOVxxDbRwgw8NpiBDGCsh0jyIRinbGsWVGUbT0PJ16pJ8qhgpvY1K8urGpNhYOBBQYjSLvinq5Eh9Jl0WjSUXiqJ8pLw2UrRjUqgQpjr8DQO5ERZELxgXBY1gVVi9TDRAf1bm4RBK9DA1H8l5ZY8fC9wfnFCLIs2oqgGIS6XcC6gTVRPE9uWDUbh02X7uLx1bWYstEVEcrLJxIfXJagdYnCKFioMIqUKIe6I23h4m/4yM1nQi9haacasGowF7fU0xTv8cJuJMrlaIBFzh8Mvj8YQZYRQeFP7TC9YV4U63MEvuqJItwRMyrlQK3fTuORgeuDGEGMoGzHCFKJi0Toez/4+r7B2+BIxMbHIjoqEhFRSbs44pQ9aoF+r+Hr+xpvAt4jJCrN1UaCF2vRpkhFtJlzFi/V0xT3sXtEE5SpPAonw9TTGEFZLT4qFB/8feH7+i2CwuX5Vc/7eMRGhuBd0rz3f4fgj9NS92p7e5Su2AoTDvuoJyVwtcXkVqVh1f84gtTTGEEGxCE6NBB+vq/hFxiMiNh4xMVEIDzy01Gb+NgIBL/1Uza0fF/7411YNOLS81YNv471fWqjWI0puGrwZPZgvDo7DhV/roPZNwMM3gmLEWRZNBVB0S44tmkmBkw4Atc3L3D3ij0ObNyKC+eXYsyqJ4hUXj6hCHRZjr5DN+Ps5VtwvrIW/TtMxWEXXxjK/s/4HcbU5tYo1XEbvNXTRKwvnFa2wq+/dsV2zzCDp0ExgkwXQbER7xHwRtZX7xEWE4/4+FhEhkUg5uPCMA5Roe+Ux7z29cWbwBBEpOuQYAxenJ2JdvmLoOchw+uK+MgHWF73F1QccRBOKT9OjRHECMp+jKDkYuHnuAm/tSqJPHkKo87oPbj95CpO///tnQmcTeX/x6dVKdpXlSX7NkjI1kJKlCUVfvxRtoRCCClblDVbyBKhZB3GvmXLvu9C2YmxL2MZPv/X5+Hqzpl7Z+ZOM87ccz7v1+v7MnPPuWeu+5zleT/L95n8C4ZO96x6fRCrRjdGkfSZkTVrFuQo8i4aDduAM/G5Z6xuj9eylUbdIavgw3GAk/PxfdWiyFbqW6zycTxJUBISdQxrRn+JKi8+j+ezlECDQctw9PQmzJ8yAv0neyqy/2DzxOZ42ZR9VmQvVBZ1fliFE/Eoii3dXkdoqY/Qc5HPkseZZf1Q9+WsKPLVCp+TSCVB3lzDpUMr8EuLt5CPLd1vN8eQxZuxe8VQdPppO86Z8riCC9t/RM1CuZA5S1ZkzZkfb7Yci/X/xKOlO2I6ulV+FTkrDIbPb+1qBLYPrYoMz1XGoB2nfA73kQQ5i6CSoCMzMXFEV3w988aZee0yzhxaj7Xz+6D1j7tuSMkVnF7XDe9kz4LMWbIgU+ZQlGw+DhsjfJ3NFk7PRbcqJfFC+T7YcuOlq1cu4WLk9fdGHVqI78tlQNpyA7HxjK+7mSTo1kjQNUSd3IEZXaqgePYMyFasOr6Z/TeOndiCkR0HYcXBkzeeNUcw+fO3UCTL9edajmJ10XvOLpyL8zZzDpsmfY7SaV9Cu1XWbde5emI6muZKg1Lt5mF7zAzZkiBJkP1Igrw4NRvfte6Ajn1nYsv25Rg3fDLmjO+DIWOGofeEG5WZqG1YOK4z6rWYhDVrF2HikI6o/WF/bIz0fbOPxo7v8U72EqjRdzGuz/y4hqgrVxB1o6nsxO9dUCV/Drzc+nf4uF9IgpKQs793Q/sO7dEtfAu2rxyPEWNn4PclszFj3A/o8suNsYtRu7EyvAtqNxmPNWsXY9qozvjw/77HqtOX4qxY7xlUAXlfrYZvZh2//sK1KFy5EnXjIXQSy/pWw0vMqDTddwVLEuRF1A7M/+Vb1GsyAsu2rMPCWeEYOWAEFs7vgSZ9NuGsuTQicXpLP9RrNAjhc5dj7eKBqFf5K4xduRe+0454cXYh+tUshdDSPbDxxkvXrrK8rl+o1yJWY0jljEjzRk+sOO673VwS5CyCSoIur8OUYZ3wSbvZOHD2KLb8Ph0/df4G42b3QrPv1+L42fM4f+E4jm7oh0+aj8K8OWHo3+hDtPl1NfZdHysXO9cOYmbH91Ak3/voseEKruEy9q/8DV0/74Gpm7dj6cD/IW/aF9Eg7AAu+DmcJOgWSNC1Q9g8qxdq1x+AeWvXYuWicAwdGI6N+5ajd7MeWLw34sbzZz9GNmmKXiMmYOnatRjV5P/wRf8wrPFVCYnGRfw5/StUypQPTeZ77oPskb9847iX8c/Uhsj39Ev4dOIOnPBxLkiCJEG2IwnyYuv3+Kr/OEzcfv3XaxfO4ey+qRg1ehj6TfH05e7D0p/qIt+z2ZE3Ty7keukd1O6z3OcFHoPLS9G5VB4Ur9UXv5vDHcfin3qh6/fh2Lx/BUbUeRGZX6iOfpt9l4UkKOn4c0A7/DBqHNab364h8twZnDq8COFjf0SPcZ6b6WGsH9sIBZ/Jhrx5ciNXwTdRvdtCHLkcd+FfWfstKrxYDO93mQtTLT71B8b064qu4zdh/7pR+KxoZuR6tzfW+KmhS4K8ODYf00Z2RutwTzL5KzhzeDM2L+yNlj9suzHnIQrnt/RGpTy5kCNXKPLkyY9XPxmO5Qcj4xRWVh7mfFcVRUIrovsG7n0Fh9eHoUfLXpi+7S+sH1UXhZ7NhRq/7FR2OJcQVBKEyzi1dSp61ngJ2TNnRO63PkPvacuxbnITFHw6PTJnzoVCpZrh10V90az3Gpy6cBVXjsxHz+adMW71Xp8NcNG5hsgto9DmrSzIWLIlRq4/jMNbpqBH9QJ4Ls2zyJA2G95sPwd7/dzLiCToFkjQmU1YPaEtGv16o+ENV3E24jiOH1uD/s17Y9nBUzdeP4TfPn4NhbJlR2ieUOQqWB1dwrfipJ97279cw5lNY9G6ZEYUavH79Ybd8wexpN/n6Dh2DXbvmoNOb6ZH+rI9MH+f7wQykiBJkO1IgryIGIevv+yBPhN3IwonsGzMBEz+qT16jR2J/pNuXFBRO7Bowndo2HIkpg3vgibV66PXyjM+xz3H5BIOTmyEN3LnwquNh2PZsTPYO6sb6pTMjXTPP4vn85bBp6N34Kyvu4UkKEk5Obk92nX9HqO3RwGnV2D82EmYNHkCZkz6Ed3G3JjyefVvrJ7WFR9/PgLTRvVA82ofouuSCJ8Tf2Nw5RCmt3wTebK/jLqDluLw2X1Y2K8e3syTFs+nfR65SzTEsE3+zyNJkBeX12PGzx3xcYfFOB51AQfWLcKvXbshzMx52HpjOFwkzmwdgAaN+2Ps2BH4tlZlNBu5AntiqZj9yzVc2PorviqTGRlKfIGRG47i2K456FurMDKly4Ss6TPh1RaTscPfhSoJchzBJUHXU7yf3LsRK5Yuxeqte3H80jVcObUfW1ctx9Kly7Fy7U78c/YYDh07j+sdnJdwdM8+HDsT6XM4bgyuncexTeH4oUUVlHmlAEIzP4/M2bIhY85QZMv4Cj4P3+N3vTsiCboFEhS1B2undUatljOw5+x5nPh7JX7tMRQLdi1F75a98ce+4zeeN/sx+vPP0WvYaIzp/wmqN+yF8et9ZDHwxaWDWDaoBvKkfRE1ev+Onf8cxsYxTfFWzizInvUZPPVCbQxYegSX/TzYJEGSINuRBHlx7TQ2T+iMeiVDkTs0D4rW7IMZS6dhVIcKyPhcdoSGvoHaLdphyKyh6DSMqQ3OYNvsoWjfeiCWH+ewgHhw8Qg2hvVE8+pl8Grh/MidJQMy5cqBNE+lQ64SDfHTdv83U0lQEnJmK8J71sebeXIjNFcRVO4Yhi0HNmDad5WQ6RmWfUlUb/Q1hs/9EW0HMb/beexZ/DM6tOyHJUcu+pUXby4f3YjpfVui1tuvouiLociaIRNyZk+DNOlzociHQ7Eplgq6JMibizi+ORzd/q848uXOibxvfIzOv8zHmqnN8NJzmZErd34ULd0cYxb2wqc9VyHizFVcOjwHPVt0wW/L/0a8Hu/XzuHohkno0+QDlClRBPlzZkGWrBmRNnN2ZHi2EBpP3O17Xt8NJEHOIugk6BZxKWI3Ni5fiHlz52Pxqo3Y+ucazBzSAY2a/4wtZ/3rlCToFkgQLuPc/iUY/ElpFM6dA7mLVULjH//A30dWoHvZnMiRLQdyhxbGJ6NmoetnvTF3235EXT2J1YPaotPgcKz0TIOOgytndmPRT23xUcU38TIXf8+aGenT5UDutI8gS7VBWHLE/3kgCZIE2Y4kyML5A9i2dAbCwqZi4eZDOBd1ESd2rsScaVMQFjYLS1Zvwb6Th7Hn4PV2rqjICOzauANHL8anGuzhAo7tXoNFs8IxOXwWFq7eiA2rwtC7TSt83X/BjflCMZEEJS0XDm/DylmTERa+ABv2MkfbZRzfvRrzTNnPxKLlm7H/5GH8deB69ffa5RPYvXE7/rlgWUcmNi5G4O91izB76mSEz1yIles3YM3UfmjXui16zfYMW4iJJMhC1Dkc3bYI08ImY8biTdh/PgqXI3ZgGa+psCmYNns19hzfh537T+PijZ6h/Vu2Y9+xs3Fnv/Li0rE/sWbhTEydMhWzF63Eus0rMWNwOzRoNhzrT/m/Z0qCnIUkKAAuHMGOLXtxOpYMY5KgWyFBfEhdwum/lmPOlMkIn7sCf566CkSdxf618zFjymRTz1m26x/8vfMATpy9YJ5jUUf+xJ9/H8CxWBrlYnDtNPZtWop508MRPmM+/lizBZuWjEHXBg3x/cK9OOGneiQJkgTZjiQouXAVJ/bvxtbtB/0OI5AEOZRrJ3Hor63Yst9fyUuCkhUXDmPLul04EUt6dEmQs5AEJS6SoFskQbZyFce3rcOOf87emKcZE0mQJMh2JEHBgyTIvUiCggtJkLOQBCUukiA3SFDcSIIkQbYjCQoeJEHuRRIUXEiCnIUkKHGRBEmCiCRIEmQ7kqDgQRLkXiRBwYUkyFlIghIXSZAkiEiCJEG2IwkKHiRB7kUSFFxIgpyFJChxkQRJgogkSBJkO5Kg4EES5F4kQcGFJMhZJIYENWnSxFwjAujWrZuRoEOHbqzBdguRBCUfJEGSINtJ7hLEyluFChVUEb5RQWWFduzYsQHddINVgmbNmoX69etj/fr11k2ug5XgYsWKYdmyZdZNsXKrJCgyMtJU8L744gvrJlfSpUsXI0GJ1dItCbKX/ypBV69eNRXvzJkzm8o/rzG3Bq+L0NBQNG/eHMeP+18WIKmwW4LGjBmDQoUKWV92JUuXLkXDhg0xd+5c66YEIwkSAZHcJYi9HwULFsR7772HXr16oUePHq6Mnj17mgpmjhw5TEWID9X4EqwStGDBAhQvXtz0frm57Bks+8cffxwrV660fk2xcqskyNPSzfOT56r187stXnjhBTRr1izRKnmSIHv5rxJEpkyZYu5ltWrVQs2aNV0bNWrUQNWqVc1zKRB5SCzsliD2BKVMmRLdu3ePcd9wU/A5UalSJZQuXRpLliyxfk0JRhIkAiK5SxArZWw545C4atWq4X//+58rg/933jD4AN26dav1a4qVYJUgCnDLli3N32PlwfqduCnef/991KlTJ+DhI7dKgsjEiRNNr62br1NPvPPOO5gwYQIuXw5kaVb/SILsJTEkyAMbsFiGbg47sVuCNm3aZN7HsN433BR8TvCe1qlTp0TrMSeSIBEQyV2CPPDzXbhwwQy7cXMk5AESrBLkgf9vlb3/hVRj41ZKEImKilJZRUYmmvx4kATZS2JKkLAXuyXIg+6TkWYuaWIjCRIBESwSJBJOsEuQSDi3WoJE0iAJshdJkHNILhIkkgZJkAgISZDzkQS5F0mQM5AE2YskyDlIgpyNJEgEhCTI+UiC3IskyBlIguxFEuQcJEHORhIkAkIS5HwkQe5FEuQMJEH2IglyDpIgZyMJEgEhCXI+kiD3IglyBpIge5EEOQdJkLORBImAkAQ5H0mQe5EEOQNJkL1IgpyDJMjZSIJEQEiCnI8kyL1IgpyBJMheJEHOQRLkbCRBIiAkQc5HEuReJEHOQBJkL5Ig5yAJcjaSIBEQkiDnIwlyL5IgZyAJshdJkHOQBDkbSZAICEmQ85EEuRdJkDOQBNmLJMg5JKYEVa5cGQMHDrS+LGxEEiQCQhLkfCRB7kUS5AwkQfYiCXIOiSlBH3zwAbp3727ulTwvgjkuXLiAq1evWv+LQYckSASEJMj5JIUEzZw507pJJEMGDx6M2rVrmxttfIiMjES7du3QuXNnnDp1yrpZ2AQrKGXKlJEE2QQriZIgZ5CYEsTz4dlnn0XmzJmDPjJlyoTw8HDrfzHokASJgJAEOZ/ElqCyZctKgoKEQCWIlW1JUPKDPXTqCbIPSZBzSEwJOnLkCNauXYvly5cHfRQsWNDMbwp2JEEiICRBzicxJWj37t3InTs3GjRogMmTJ2PMmDHR4rfffsPQoUPNzXT06NHmd+s+ilsTkyZNQp06dfDKK6+gT58+GDt2bIx9vIPbR4wYgXfffdcM82A5xvUeRdLHuHHjMGzYMKRLl878Lm49kiDnkJgS5CTee+89SZANSIJsRhLkfBJTgjhcqlWrViYrTsOGDY0MeQdfq1q1KsqVK2cq4HzYWPdR3Jpo2rSpEaCsWbOiWrVqPsvLO7i9bt26yJ8/PwoUKGDmEsX1HkXSB8ugVq1aeOKJJ0zDg7j1SIKcgyTINxUqVMAPP/xgfTnokASJgJAEOZ/ElCBy9OhRbNu2DZs3b8aWLVuixdatW7FhwwYzRIDb+bt1H8WtCZYRHwbs2Zk9e3acZcHta9asMRVvVvY4RCKu9yiSPlgGK1euNGI6ffp06+UobgGSIOcgCfKNJMgeJEE2IwlyPoktQSJ4GD58OOrVq4fDhw9bN/mlU6dO6Nq1Ky5evGjdJGyCWZvYqycJsgePBH322WdmfpYIXjw93CI6FStWxIABA6wvBx1t27aVBIn4IwlyPpIg96IU2c6AlfDixYtLgmyCKcrZSt64cWNzXTA5BRfIVARXkJo1a5rnIbFud2NERUWZ76J8+fLo16+f+Z1h3S+5Bz8zr0sOA//yyy8lQSJ+SIKcjyTIvUiCnIEkyF5Onz6NFi1aIGPGjGaJgPfff98MM1UEV1SvXt0kGMmQIYOZJ2nd7saoVKmSOZ/TpEmDvHnzmt8Z1v2Se/AzM7nDo48+ig4dOphMp8GAJMhmJEHORxLkXiRBzkASZC+cB8nhQo899pgZLtqrVy9FkAZTQRctWjTG626PXLlyGZGwvh5M0bNnT/Mv5yMHC5Igm5EEOR9JkHuRBDkDSZC98Fpo1qyZmTwughs+C1mWIjpcFoFLJIhbiyTIZiRBzkcS5F4kQc5AEmQvnHPA1uUFCxboWRnkKDucb5ySHS7YkATZjCTI+UiC3IskyBlIgoRIHCRBvpEE2YMkyGYkQc5HEuReJEHOQBIkROIgCfKNJMgeJEE2IwlyPpIg9yIJcgaSICESB0mQbyRB9iAJshlJkPORBLkXSZAzkAQJkThIgnwjCbIHSZDNSIKcjyTIvUiCnIEkSIjEQRLkG0mQPUiCbEYS5HwkQe5FEuQMJEFCJA6SIN9IguxBEmQzkiDnIwlyL5IgZyAJEiJxkAT5RhJkD5Igm5EEOR9JkHuRBDkDSZAQiYMkyDeSIHuQBNmMJMj5SILciyTIGUiChEgcJEG+kQTZgyTIZiRBzkcS5F4kQc5AEiRE4iAJ8o0kyB4kQTYjCXI+kiD3IglyBpIgIRIHSZBvJEH2IAmyGUmQ85EEuZeEStB3331nfhbJA96fX3nlFcyZM8e6SQgRAHXq1JEE+UASZA+SIJuRBDkfSZB7SYgEtW3bFq1atTLvOXHiBI4fP66wOfbt24fChQtj7NixMbY5Ndj7FRUVZT1FY8B9AjlPfT3reIwzZ87E2NdX8G9duHAB165dsx7GfGbr/r4iIiLC7GuFx+Sx+TcYvj6rL3jdWv+GwndUrVoVDRs2tH6FrkcSZA+SIJuRBDkfSZB7CVSCLl++jG7duiFt2rQoWLAgSpYsiddee01hY5QoUQIvv/wyHnzwQYSGhsbY7sQoVKgQ2rRpg4MHD1pP0Rjs2rULb7/9thkuaD2Od7z66qsoVqyYz940Xh/NmzdHkSJFYrzPO1gOpUqVMs/NyMhI62Hw1Vdf4aWXXjJ/y/pe78/h+f9ZuXjxIkaOHGnK/PXXXzf37KtXr1p3i8GAAQPM9Rrb31W8Zr7T+++/3zTyiOhIguxBEmQzkiDnIwlyL4FKEGErNc+VGTNmYPbs2Zg1a5bCxpg/fz4mT56MXLlyoWPHjpg7d66pyFv3c1LwnrVp0yYj5XFx7tw5LFiwADNnzoxxHO/gdp7X//zzj/UQpidl3bp1Zs6V9X3WY/D7Z8+cLznhZ47P52Bs3rzZ+nZzzD179pjrjn+HvUHxgSLI69X6txTRY/ny5UYUP/30U+tX6HokQfYgCbIZSlDp0qVx5coV6ybhEPhwbNCgga4rF8LrO1AJEskPVtLZ08FrWQiRcJQYwTeSIHuQBNnM4MGD8cYbb0iCHIwkyL1IgpyBJEiIxIH3Q0lQTCRB9iAJspmffvoJqVKlQs2aNc2NgZVlhXOCE0DLlCmDnDlz4p133jG/W/dRODMaN26MAgUKmPkFHOojghelyBYicVBPkG8kQfYgCbIZFkCfPn3QpUsXdO/eXeGw6Nu3r2n54mTd+vXrm7K27qNwZnCydNmyZY38bt++3XrpiyBCEiRE4iAJ8o0kyB4kQckApuVkelCF84LDaMaPH4/atWtj6tSp5nfrPgpnBlPt9u7d2zz0eaMVwYskSIjEQRLkG0mQPUiChEhimBWHN/2FCxdaNwmHM3ToUCPAmhMU3EiChEgcJEG+kQTZgyRIiCRGKbLdS0JSZIvkhyRIiMRBEuQbSZA9SIKESAROnTplfekm8ZGg2N4vki8cysp1UvwRHwk6efKkOY6wj6ioKDN80R/xkSAutMnhrkK4GV4rsREfCTp9+rT1JccjCbIHSZAQicCUKVPQs2dPM/TNuhggF1tkprBly5ZFe/3w4cOmUsVJ9Fy8TwQflJeff/4ZvXr1MsMdrYsrchsTYljPib1792LChAkmIcr69eslQTbDRTK5eGbbtm3NtexrDhcXeeSioN6w8WLFihXo1KkTxo0bh8jIyGjbhXAbnA/ZtWtXs/wHF6+1LgRfr149NGnSJNprXJSX+w4aNMi8lw1DbkMSZA+SICESAVaEmAY7a9aseP/999G8eXNzQ2OFqn379njrrbdMhTcsLAz9+vVD06ZNUalSJWTKlAmhoaHYsGGD9ZAiSJg4caIp9zx58qBq1apo1aqV6QFiD2CjRo3w+uuvY9iwYUZ6vv/+eyPE5cqVQ7p06VC4cGEcPHjQekhhA7t37zZrtqVPnx5vv/22KTs2bLDcmNwkR44caNeuHcLDw81crzZt2qBatWom8+OTTz5pljsQwu2wQYc9Pc899xxee+011KlTxzQSjBo1yjQS8n7IZSPY8MfXuI37cN9nnnkGdevWNY0SbkMSZA+SICESiU8//dRzMZm46667kCFDBjz99NNInTq1ucGz4nvHHXfc3Of22283lWYRvHAoVZUqVaKV/b333msE9/HHHzfrgLHcn3322Rj7UI5E8oAVr0mTJkUrIwavW17H99xzD5566ik8//zzuP/++6Ptw3Xejh49aj2kEK5k165dpmHI+xp59NFHzWt8Fj7wwAPmZ77mvU+2bNlcu5yAJMgeJEFCJBJbt25F7ty5Y1SiYosXXngBO3futB5KBBlz5swxomMt39iCi6hqLljygiLDdZ2sZRVbsCI3efJk66GEcDVffPEFUqZMGeN68RfclyMo3IokyB4kQUIkIs2aNTMt/NYbvK+47777zJAaEfywN6hGjRrRevlii4cffljDp5Ih7A3icDf2+ljLzF8wBbp1zpcQbmfHjh3ImzdvjOvFX+TLlw9btmyxHsY1SILsQRIkRCKycePGeN/4CxQo4NqufyfC8e4cNmUtZ19RqlQpV07+DQYiIiLMnCBrmfkKyiwXQRZCxIRDvePTKMh9WrZsaX27q5AE2YMkSIhEhl36cbUk86bPTFTCOVy5cgW1atWKszfokUce0VygZIynNyg+Q3nYC3TkyBHrIYQQN4aI58+fP8Z1Y40XX3zRNCC6GUmQPUiChEhk1q1bZ+b6WG/03sGMUnxACGcxY8YMM3HeWt7eUbp0afUCJXOOHz+OsmXLxig77+Dk7tjWDRJCXO8Niq1RkNtat25tfZvrkATZgyRIiCSgRYsWSJEiRYwbvuem/9VXX1nfIhwA17vg4qjM+mctdwYn0TO9skjesDeIw9ysWeC8Q71AQsQN1//h0G/r9eOJQoUKmbXS3I4kyB4kQUIkAWvXrjVd/NYbPqNIkSJmYUbhTNg7kDFjxhjlzuD6GOxlEMkf9tZxfS9rGTIoR5wDJoSIG/b0+GoU5GsaFn4dSZA9SIKESCI4DODuu++OcdPngovCubA3iAv+WXuD2As0ZMgQ6+4imcJFH7nYMYe9WStv7O1TL5AQ8YM9PezxsV5HXCyaw8eFJMguJEFCJBGrVq1CwYIFo930ixYtig0bNlh3FQ6DQ6msc4OYcUy9QMHF6dOnY/QGMbU914USQsQf9gZxAXHPdcSfv/76a+turkUSZA+SICGSEK4DdOedd9686Xfo0MG6i3AgFy9eRL169XDbbbeZsmcv0ODBg627iWQOe4PCwsLw0EMP3ay8MQOg1gUSIjDWrFljen481xGHhXPYuLiOJMgeJEFCJCErV668OSlUvUDugmmWPesGlS9f3qw/I4KPs2fPmox+LEcmNZk3b551FyFEHLBBgQmBOEyYwQZBviauIwmyB0mQEEkIs0yxy58tyZ07d9ZN30VERkbiww8/NPPC1AsU3EyYMMEsjPrBBx/g6NGj1s1CiHjA3qDQ0FDkyZPH/Cz+RRJkD5IgIZKYc+fO4fDhwzh//rx1k3A4I0eORLNmzXDw4EHrJhFEnDp1ygjQ/Pnz1ZAhRAJhoyCzwXXs2NH8LP6FowX69+9vfVkkMZIgIYRIIk6cOKGeA4ewd+9eXLp0yfqyECIAOJ/u2LFj1pddT6lSpdC9e3c1stxiJEFCCCGEEELYxDvvvIN+/fpZXxZJjCRICCGEEEIIm6hYsSIGDBhgfVkkMZIgIYQQQgghbEKJEexBEiSEEEIIIYRNSILsQRIkhBBCCCGETUiC7EESJIQQQgghhE1IguxBEiSEEEIIIYRNSILsQRIkhBBCCCHiz4WjWD+qDT6pVwd16lijHuo3aIymrdqj+4/jsWDHKcS5NOrZ3Vj8Sy+0a9bAvL/xF99iUNgK7Llo3dGZSILsQRIkhBBCCCHiz8k/Ma76o54KpP9ImQa5XquMzwcvxq6z1oNc59zfi/DjxyWQ69Hbor337mfyo3zTH7HknzgVKuiRBNmDJEi4ll27diEsLAxjx47F+PHjY8S4ceMwceJEzJ49G+vWrcORI0eshwgYrpY9a9Ys/PLLL5g/fz7OnTtn3SVOLly4gJUrV2LChAkm/vzzT60yLYQQ4tZxajfC6mXAPXfdjVT5qqLl19+gc+fON6ITOnzdGs0+roo3cjxwvZL5WH5U67cYu62PvIjNmNS8EJ4ICcH92cqjWc/BGPHzT/ih3YcolZaV02fw6pezceCKs59xkiB7kAQJ1zJ8+HBkyZIFadKkwbPPPhsjnnnmGaRNmxZ58+ZF2bJl0bBhQ/Tt2xd//PEHTp06ZT1crFy5cgUrVqxA06ZNkTt3bjzxxBNmhei9e/dad42VAwcOoH///ihZsiSee+45pE+fHoMGDZIECSGEuHVQguqmxd13p0KaejNhdRvD5QjsXPgL2lXIhsdY0UxbDh2n78WFmztEYs+0DijzWAjufKYUWkzb6zVs7iw2j26MgqlDcMfTb6PPurO4fHOb83j//fdNnUTcWiRBwrX07t0bd911V8zuez/BfR966CG8+uqr6NatGzZv3mzkJjYiIyOxY8cO/PTTTyhdujTuvffem8fLly+f6Y2Ki6ioKNMLNWfOHHz66adIly5dtM/13XffSYIC4NixY6Znb9myZUZMrbF8+XLT07Zx40Zzgzx9+rT1EAFz8eJFbNu2DUuXLsWGDRsQERER7zI7c+aMOU9Wr15tPvPatWuxb9++OM89IYRIMm5K0P14qsZY7D3tf8jaxS3D0ajIk7gzJCVy1RuMZZ42xItbEda2OO4LSYU8NQZhq+V9OLcVwys+gRQpHkaRLmsQccm6Q/KAz2g+N9hIOnDgwARF5syZ8e6778Z4PT7BhtFhw4aZZ1Z8nyviOpIg4Vr69euH+++/P4bs3Hbbbbj99ttjvO69/emnn0aNGjVMr9DlyzHbp44fP24q0gMGDED16tWRMWNG3HHHHdGOU6hQIezevdv61pvwuNu3bzfD8lq0aIGCBQvivvvui3aMu+++G927d9eNL57wewoPD0f58uXx4osvmjKwBr/nwoUL480330StWrXw9ddf4+effzYPGF9lHReULj6gONwhf/78+OCDD8yQSD44Y4PDHhcuXIiOHTuiSpUqKF68OAoUKIDXXnsNtWvXNj2AsZ0/4nojBL8jiqO/oBCzQeOvv/4y121CrqWrV6+ahoqtW7dizZo1WL9+vfm7LEMhHEkAEsReneXdKyM0ZQhCstVGr0U3JgftmYqe5VIj5O5QvNtjDWLcES8fw9a+pfBQivvwUJkB2HQieTb88F7OYfWVKlVCtWrVAg7WEcqVK4f33nvP/Myw7hNbVK5cGfXq1TN194Tcv9yMJEi4FqsEsacnT5485qbCyi9vRG+99RayZ88erQfHEylTpjT7seLjDStEU6dONRVtDqnz19sUlwRx6Bt7fnLkyOFT1hiSoMBg2QwePBhPPvlkjO/SV1BcKZ4cvlimTBkMHToUe/bsMceJi/Pnz5sK9pdffmla+TzHfP755zFy5MhYe3LY+zR69GgjY77Knp+Ln4kyxEp3XELlVnh9sQGhaNGiJooVKxYt+BrlksL7f//3f2jdurURVrbqnj3rZxa3BcoTJblJkyZm2GyRIkXw8ssvG3Ht2rWr6f2jjAnhKAKSICByUWdUz3knQu4qjAZD14F3v8urf0KTvCEIeaokGo3/x/oW4NppHJraAFnuvRcpszXFtEPnkVyfdLzGOef36NGjCYrDhw+b97PRzLotruD7EtqA43YkQcK1WCUoderUpsLESg1vSIcOHTLDkNhz0KBBA9ObY+0hYmWaw+q85wixt4CvPfLIIzEqr94RlwRt2rTJ7GN9n3dIggKD8sJKLud6Wb/LuIJlz7lin332melB8CVCLHueN4sXL8b3339vKtcPPvhgtONQqpkYw58EcfgbK9XskfI+3yjTKVKkiHase+65x8g6ezJETNgjU6pUqRhl6SsolmzYePzxx40g8bpiA4e/3j8OceTwxI8++sicF9ayYaRKlcoIEVuJWa5COIYAJQh/jcTnpR5GSMhzeLfLTESwsWdhX9Rg8oNM5fHVfF+5sM/jn6Vt8VLKe5Dyier4ee+ZmL1FQvwHJEHCtVgliJXVTp064dKlmAOPKUXsQQgNDY1WMeXP7MZmi78Hvr9nz5547LHHblac2cPEBAwcSud5b1wSxLkjHP7kqUxxDhEr0N5D4iRBgeFLgigXGTJkMD0CHGrGSivLi0MefVVsWa5MkuGr7Hbu3GmyI/FYnvK3vj8uCeIQS8qT999m7xGHWtSsWdN8Nu/eRYo456gFmqzDDfAaYg+etQziE5z/x+Ep06dPj5HFkWU3d+7cGOXE4DV555133vyd1zx79H777bcYxxEiaAlUgo6GoV0F3ncfwhttJmIfE8PN6Y4PHg/BbTneR+c/fD3DLuDYmi54NWUK3PtgJQz667TpQQoG2DPDXmDez/lvYgYb2djAo4aV/44kSLgWXxLUoUMHv+P4WclkZZMy413pyZkzp0ml7Wkx5r9MhPDGG2/g7bffNj0CrHhzaJ13pTguCeJ8oKpVq5pMcMwqN2XKFLRs2dJUzr0rXJKg+ONLgh544AF8/PHHWLBggRkGxYcMk1BQejlEikMaveWVwXOA6Uyt4jFv3jwzxMp7X2vEJkEUaJ6DHOrm2Z/l3b59e1Oh5w2bn59C7NnOz0YR57A4ER1fEvToo4+ajI+eIXL8Lplp0deQV/a08bql8Hg3jvDa5FBY9hx59uXPnGf2v//9zwyFZeZGz/XO65TZIFetWhXt8wkRtAQqQRFT0KFieoSEPIiSrcZjD+dLzu6K9x4Nwe05P8C3y61vIJGIWPcdSt6XAvc8WBEDdp8KmgxxbBjl0HoOi+VzPDGDCRQ4dJfPA/HfkAQJ1xKoBBEOUWOliJUaz/tYSeWxPHMIKCQcRrdo0SKzP8cKc7gSb1zeFay4JIgVbLYiMWMZJ12zAs8eJm8JkwQFhi8J4rBFZtizDnviPBuWD7cxlbpVhJglkGXjzcyZM/HCCy+Y7RxexWOzR8H7vbFJ0P79+1GiRIlosszzhpV5D8wsx/kn3udutmzZ8Ouvv+o8sGCVIJYDy42paJcsWWJaVCm8I0aMML17mTJlitaLw6Akf/LJJ6aXj7DcWH6cq+fZh9ch/w7X7eK1z1Za9ip7Z3LkfYLDZDU/SDiCQCXowBi0eotzMZ/EO+2ngjOATszrhapPhSAk67vouNjX+y/g6MqOKJ7yHtz7SBUM2xM8PUGc18l7DOsBvM8kZrDBjvc26zNLBI4kSLiWhEgQJy02b97cVGy9K0l838mTJ62734RzCypWrBitchWXBPlCEvTf8CdBXbp08Vs5PXjwINq2bWt6ELzLj8MS2ePn/SBiTxBToVOa2BvAnkP2GHgPX/MnQSxDShS3e/8dnlsnTpy4uR/fN2TIEDNHzbMPe44oaxpuFR2rBFEumZ1vy5Yt0fbjd88JxhyyxuGQ1iFuFB5maaQYs7GDGQM5d8izncMpmTSD84Q8sLeIrcCerJA8B/g7E54IEfQEKEFX1/RGnQL3IOS23KjV9w+zVtD5PwahfpYQhKQri1YzfN27zuLIvObIyzlB6etjwoFzXusICfHfkQQJ15IQCWLrDiub3hUgti6zpZgZWvzBSpckyH5ik6DYyp1DG1g5ts7xoRxRjD38+eefJvMbK9OsBLNizQpzfCSIFegePXpEG+7IXgn2WlizvzH7INNte/ajiDOpR2znoBvxJUFclNBfIglm9GOPGofLeae0p/C2a9fO9M5yrD8TpXCenmc79589e3a0Y1GWmN7cez/OKdSwReEIApKgq9j988d47XFmgquEduH7zavXto5Fu5fvQMhDRfHRcA6Qs3D1BPaMqoI096TE/YU7YelRX8kTggM+e/is4Pzi+AaT7GjeT9IiCRKuJaESxIqqtwQxOKeEQ9b8IQlKHiRUglih5RA0a6Y3rs3AbIIeKDY8jqdHgP9yPk98JIi9OPXr149WaWZSDWYntMKsZBzW5dmP81l4DnIRVfEv/iSIw1T9wZ6azz//PFpZs6GDWfhY1qzIsJy87x1MVsG1n7xh2fPapKB69uN5N3nyZA1jEcFPIBJ0cQ0G1syPh0Juw1MVv0X43huvn/gDw+tkwm0h6VCyzSzEqO5HHsCC5rmQMkUqpK0Thn1nY/kbyRw2oHCIbOPGjc3SF8wyGlfw+cK5wCLpkAQJ15JQCeIQJ28Jooiw0uTdI2BFEpQ8SKgEeYagec/xYHBdGO/MgFZ4TPYgxEeC+JDk5HnvHgjuy0n5Vli5Z2Yyz358D4d5sfdJ/EtCJIgJEJii3HttJwa/b8714ZysZs2aRZMknk9cGNl7SCXLguLkXfa8b3B1dw1bFEGPlwQ9/WEYjsRMqmp6gC6fi8DqgR+iKHuB7grFhwOW4OjN7UewdFB1ZLwtBE+/8jnGH7TcE7ePx6c578Jd92dGzTH7cCaI82N7epmZUGfgwIHxir59+5pF10XSIQkSriUhEkTRsbYSc37QN998E+ucIElQ8uC/SBAXL/Weh8Ng5r7YHlKBSBDPH2+x8ewbHwliVKhQwe8wL7eSEAniOTJ//nyz6Kn395s7d27zbKTAMOMjswZ6tlFCX3nlFYwfP95IEgWI2ZusmSR5r2BrsDWroBBBx00Jug9PVB6K9X8fNee+iWP/4NCe7Vj3+1j0blwauR4JQcjtKZCzRl/MOeDdm3MNZ9ePQeuid+H2kCdQsM4g/LH/JE6fPoWIHXMxoEZ23BuSAk8Ub4d5R4J3KBzhM5o9wGxkCSSsQ6FF4iIJEq4lIRLEShVTX3tnh2PFmC3H/ibWE0lQ8uC/SNCoUaPMej3eZcgU6InVE0QJ4rnlffz4ShCHa3EdISbgEP+SEAnitcQMTN7DDRnsGWLiCm5n1sbXX389WtY/DklkQgyuEcX5WkxWYZ1D9vDDD5t1pCRBIug5tQuT6qTDXTy3b78XqR540DxDb8YDDyB1qvtw79134I67HkCODzpjwtazMRc7vXoam8e3Rpln7sZdd6fGkxnz4KWihRCa7iHcd/edeCBLeXwz7zD8P12FSDiSIOFaApUgz1A47xZgBluAmQozNhGRBCUPEipBbJGzJi1g1KhRAzt27LDufpNAJcjauxNfCeJ58OGHH0abnyQSLkFMa8vr2rss2BPE7H+Ec8Q4XIVrhFlTp3uCc4E4p4trDXleoxhxOIyGw4mg59RfCG+UEw+nTIEUd1qvgdtx5z2p8Vi6XCjyTj10GDEfm49ExhSgG1y7fAo7fx+CVu8VQqYnUuG+e1Mi9RNZUbza1/h52X6cC96pQCKZIwkSrsWXBDGbk3eaWw+s9DBLFydAW7NGMWV2XGlvJUHJg4RKEDOCcc6NNXVyq1atYk2IEYgEMQsQF2f1rjRTupgJzsrChQtRrFixaOdho0aN4jwP3UZCJIjnyPTp083Cp95lzR4eLqbrgZmbeE/gPC5r+nTOHeO6Q0xW4b2Ni7JyyJwSI4ig5+plnDu6B7t37TRraEWPXdi1+y/s2XcAh4+dwnl/9hONKzgXcQj7/t5lsmzu+ns/jpw4HzTrAongRBIkXItVgthyy5THrPByaBsrsFyfhRUfpjlmq691IUXOG2BLfVzjdiVByYOESBDLdsaMGab8vcvP1zpBVgKRIE6cpVRxyJRnX55vHIZnLV9mGPMsyur5P8S1VpUbSYgEscyYvMA6n4fvsyae4L48FsuIDShMU/7tt9+a84WLpnLukHd5ckgdM/tZy1MIIcStRxIkXItVgtjKX7hwYZPCkskPmKKyWrVqKFq0KJ588skYw164QOKPP/4Yr/H9kqDkgT8JYsXV15wufq+c88MsX5Qe7/IrUaJErEkRSCASxN+5xpB13hHf771YKqWLQ6q8M9Xx58GDB8cqZG4kIRLEVuiaNWuaOT6e96VMmdI0kHiXgzf83tl4wt4hz/2AazYxFa537yHnfAV6zQshhEgaJEHCtVgliJLDoUjsEeLQuNSpU0ervHqCw+Hy5ctnWnm5oFl8kAQlD/xJUNeuXWP05nEOGCfCf/TRR2Yuh3fZUYp5/sQlwIFIEOF5UrBgwWh/ixXnFStW3Nxnz5495jN5V9K5kCszmono+JMgf1n02JPGa4zJTrwbPbJmzWoWwPVVZv7g4qm8xj3H4b2GPX1xnTNCCCFuDZIg4VqYg58tvN4VzrjiscceQ9WqVTFx4kSTCjS+sHJbvnz5aMcqUKBAwBLEyflPPfXUzWNwuBSTNUiC4ocvCWLllJnV2KvHLH/czu+0bt26Rkgow97lRlGuU6dOvJIQBCpBngVTveWcaZW5aN60adNM1rI2bdpE+/z8PFy35ujRf1ffENfxJUFVqlSJkcyCZbFx40YzLJIJELyHvVI2mXRi27ZtN/enMLOseD75gtc7y8x7odQcOXJgwoQJft8jhBDi1iIJEq6F2Z04aZm9KazoMFih9ASHsaRKlQrp06c3Le2snA4dOtS0IjNbWCAwdXHlypVv/g1eZ5xoHZ+KtDd9+vQxw6X4mRmsoLNHShIUP3xJEHv22BvE1n+mOOa/lF1fvYCUk3LlymHBggXx+s4DlSASFhZm5vt490TwPOVEfZ6H1rkqHMI5a9Ys62GEDwnid8reme+++w5jxowxixdyGCF7aLifr2Gv/N4poN4JU1iuLCeuD8bjsKdu7dq15l/OD6Jo8VieY/CaZ+9doNe7EEKIpEMSJFwLZYZSw/kVgwYNihGUpCFDhmDcuHGmBX7//v1+K65xwbkErKh6jkuZmTRpkskIFgis1HHeCFenZ7D3gq+J+OFLguITFCXOu6EI8/7oL4mClYRIEOeScHgehcz6OazBCvqIESM0xMoPVglieBo2WA7ZsmUz54J3z5snKEMsA94frAkn2AvERAhMgc1kB1w0t3Tp0uZfDp2zZhFkJj9mnPNX5kIIIW49kiAhhGugBFFCvTN2+QuKD+cCsVeGE+UpsBwSFUhF1pPxzfu4TJNMcfF3HPYwcd4PM5RxPpD38EdPMCnHe++9ZwSdc5eEb3xJUHyCPW98H8uJUmqFKfO//PLLGLJjDfb8ctHV0aNHq5yEECKZIQkSQrgGCsbSpUtNBZa9OlzHxRp8/ZNPPsFXX31legHYg8e5W/Ht/fGGWcM4lIprxvC4DKayXrVqVZxzQ1hpZnp29vZxHpDnGPyZQ66Y4cxXRjvxLxyiZl301F+whyhTpkx46623TBmx99ff98uhcewlzps3r895hZQoyjPXbmKCBAmQEEIkPyRBQghXQTFhSz4rphyOaA3P6+zF8ddbEwicP+Y5LoNDqQJJZc1J+PwsnmPw5/jMRxIwQ1g5Z46JDfwF5+owlTWTInB+D8WJSU9i+465jQ9P9sRxXhBlh8dijyGP1bt3byPP/Ptxya4QQgh7kAQJIYRwJJ4sbpzT4y84n4qCyV6f2MTHF9yf7+P7eSzO/ePPgUiuEEIIe5AECSGEEEIIIVyFJEgIIYQQQgjhKiRBQgghhBBCCFchCRJCCCGEEEK4CkmQEEIIIYQQwlVIgoQQQgghhBCuQhIkhBBCCCGEcBWSICGEEEIIIYSrkAQJIYQQQgghXIUkSAghhBBCCOEqJEFCCCGEEEIIVyEJEkIIIYQQQrgKnxKkUCgUCoVCoVAoFC4II0E1Q0JCIn1sVCgUCoVCoVAoFAqnxRf/D4aCfCJGE/7xAAAAAElFTkSuQmCC;" vertex="1" parent="1">
          <mxGeometry x="400" y="550" width="833" height="510" as="geometry" />
        </mxCell>
        <mxCell id="n0PsI0VugUc_FvK4NNub-3" value="&lt;font style=&quot;font-size: 32px;&quot;&gt;D0&lt;/font&gt;" style="text;strokeColor=none;align=center;fillColor=none;html=1;verticalAlign=middle;whiteSpace=wrap;rounded=0;strokeWidth=3;fontStyle=1;labelBackgroundColor=default;fontSize=29;" vertex="1" parent="1">
          <mxGeometry x="1033.5" y="1010" width="60" height="40" as="geometry" />
        </mxCell>
        <mxCell id="n0PsI0VugUc_FvK4NNub-4" value="&lt;span style=&quot;font-size: 32px;&quot;&gt;D9&lt;/span&gt;" style="text;strokeColor=none;align=center;fillColor=none;html=1;verticalAlign=middle;whiteSpace=wrap;rounded=0;strokeWidth=3;fontStyle=1;labelBackgroundColor=default;fontSize=29;" vertex="1" parent="1">
          <mxGeometry x="826.5" y="1010" width="60" height="40" as="geometry" />
        </mxCell>
        <mxCell id="n0PsI0VugUc_FvK4NNub-5" value="&lt;span style=&quot;font-size: 32px;&quot;&gt;D10&lt;/span&gt;" style="text;strokeColor=none;align=center;fillColor=none;html=1;verticalAlign=middle;whiteSpace=wrap;rounded=0;strokeWidth=3;fontStyle=1;labelBackgroundColor=default;fontSize=29;" vertex="1" parent="1">
          <mxGeometry x="712.5" y="1010" width="60" height="40" as="geometry" />
        </mxCell>
        <mxCell id="n0PsI0VugUc_FvK4NNub-6" value="&lt;span style=&quot;font-size: 32px;&quot;&gt;D11&lt;/span&gt;" style="text;strokeColor=none;align=center;fillColor=none;html=1;verticalAlign=middle;whiteSpace=wrap;rounded=0;strokeWidth=3;fontStyle=1;labelBackgroundColor=default;fontSize=29;" vertex="1" parent="1">
          <mxGeometry x="583.5" y="1010" width="60" height="40" as="geometry" />
        </mxCell>
        <mxCell id="n0PsI0VugUc_FvK4NNub-7" value="&lt;font style=&quot;font-size: 32px;&quot;&gt;&lt;b style=&quot;background-color: light-dark(rgb(215, 228, 33), rgb(237, 237, 237));&quot;&gt;SAR_LOGIC&lt;/b&gt;&lt;/font&gt;" style="text;strokeColor=none;align=center;fillColor=none;html=1;verticalAlign=middle;whiteSpace=wrap;rounded=0;" vertex="1" parent="1">
          <mxGeometry x="1013.5" y="565" width="200" height="50" as="geometry" />
        </mxCell>
        <mxCell id="n0PsI0VugUc_FvK4NNub-8" value="" style="endArrow=classic;html=1;rounded=0;strokeWidth=3;strokeColor=#FF6666;" edge="1" parent="1">
          <mxGeometry width="50" height="50" relative="1" as="geometry">
            <mxPoint x="1101" y="696" as="sourcePoint" />
            <mxPoint x="1200" y="696" as="targetPoint" />
          </mxGeometry>
        </mxCell>
        <mxCell id="n0PsI0VugUc_FvK4NNub-9" value="&lt;font style=&quot;font-size: 20px; color: rgb(255, 102, 102);&quot;&gt;&lt;b style=&quot;&quot;&gt;EOC&lt;/b&gt;&lt;/font&gt;" style="text;html=1;align=center;verticalAlign=middle;whiteSpace=wrap;rounded=0;" vertex="1" parent="1">
          <mxGeometry x="1150" y="660" width="60" height="30" as="geometry" />
        </mxCell>
        <mxCell id="n0PsI0VugUc_FvK4NNub-11" value="&lt;b&gt;&lt;font style=&quot;font-size: 20px;&quot;&gt;Out_comp&lt;/font&gt;&lt;/b&gt;" style="text;html=1;align=center;verticalAlign=middle;whiteSpace=wrap;rounded=0;fillColor=default;" vertex="1" parent="1">
          <mxGeometry x="420" y="810" width="100" height="30" as="geometry" />
        </mxCell>
      </root>
    </mxGraphModel>
  </diagram>
</mxfile>
